<?xml version="1.0" standalone="no"?>
<!DOCTYPE svg PUBLIC "-//W3C//DTD SVG 1.1//EN" "http://www.w3.org/Graphics/SVG/1.1/DTD/svg11.dtd" >
<svg>
<metadata>
Created by FontForge 20110222 at Thu Jan 23 07:22:27 2014
 By deploy user
Generated by Fontographer 3.5
</metadata>
<defs>
<font id="HeliosBlack" horiz-adv-x="1355" >
  <font-face 
    font-family="Helios-Black"
    font-weight="300"
    font-stretch="normal"
    units-per-em="2048"
    panose-1="2 11 114 0 0 0 0 0 0 0"
    ascent="1638"
    descent="-410"
    x-height="1066"
    cap-height="1484"
    bbox="-242 -503 2514 1958"
    underline-thickness="0"
    underline-position="78"
    unicode-range="U+0020-2122"
  />
<missing-glyph horiz-adv-x="1534" 
d="M95 0v1534h1344v-1534h-1344zM1344 95v1344h-1154v-1344h1154z" />
    <glyph glyph-name=".notdef" horiz-adv-x="1534" 
d="M95 0v1534h1344v-1534h-1344zM1344 95v1344h-1154v-1344h1154z" />
    <glyph glyph-name=".null" horiz-adv-x="0" 
 />
    <glyph glyph-name="nonmarkingreturn" horiz-adv-x="826" 
 />
    <glyph glyph-name="space" unicode=" " horiz-adv-x="826" 
 />
    <glyph glyph-name="exclam" unicode="!" horiz-adv-x="679" 
d="M566 1066l-115 -549h-225l-113 549v388h453v-388zM550 0h-421v388h421v-388z" />
    <glyph glyph-name="quotedbl" unicode="&#x22;" horiz-adv-x="1017" 
d="M824 904h-258v550h258v-550zM451 904h-258v550h258v-550z" />
    <glyph glyph-name="numbersign" unicode="#" horiz-adv-x="1341" 
d="M1195 808h-211l-30 -162h176v-209h-209l-66 -437h-193l64 437h-160l-66 -437h-192l63 437h-209v209h242l33 162h-211v209h225l66 420h193l-64 -420h162l64 420h194l-65 -420h194v-209zM792 808h-162l-33 -162h162z" />
    <glyph glyph-name="dollar" unicode="$" 
d="M1325 404q0 -148 -72 -250t-201.5 -152.5t-292.5 -50.5v-193h-179v193q-87 0 -180 30t-175 90t-130 145t-48 190l2 45h388q15 -99 41.5 -148t101.5 -61v308q-114 25 -204 58.5t-157 84.5t-103 126.5t-36 181.5q0 374 500 436v146h179v-146q164 0 285 -51t186 -139.5
t65 -197.5l-3 -48h-371q0 75 -44 111t-118 51v-275l136 -50q58 -20 113 -44t100 -48q89 -48 153 -134t64 -208zM580 921v242q-57 -12 -88 -45t-31 -76q0 -41 31 -75t88 -46zM938 356l-1 15q-7 38 -37 67.5t-68.5 45.5t-72.5 16v-291q38 0 80.5 22t70.5 56t28 69z" />
    <glyph glyph-name="percent" unicode="%" horiz-adv-x="2050" 
d="M2037 453q0 -115 -53 -219.5t-157.5 -169t-243.5 -64.5q-106 0 -191 37.5t-142 103t-86.5 147t-29.5 167.5q0 116 50.5 217t151.5 165q52 32 114 49.5t133 17.5q56 0 102 -11t96 -34q86 -39 142.5 -102t85 -143t28.5 -161zM1566 1583l-576 -1048l-295 -535h-227l576 1048
l297 535h225zM908 1118q0 -115 -50.5 -220.5t-151.5 -170.5t-238 -65q-138 0 -243 68t-159 177q-27 55 -41 111.5t-14 117.5q0 112 47.5 208t149.5 158q52 31 113 47.5t130 16.5q74 0 136 -17t116 -50q103 -63 154 -164.5t51 -216.5zM1742 451q0 62 -37.5 109t-105.5 53
q-81 0 -127 -50t-46 -115q0 -63 41.5 -110t115.5 -47q75 0 117 47.5t42 112.5zM610 1118q0 60 -41 106q-22 25 -50.5 38t-67.5 13q-35 0 -62.5 -13.5t-49.5 -38.5q-39 -47 -39 -110t41 -111t110 -48q72 0 115.5 49.5t43.5 114.5z" />
    <glyph glyph-name="ampersand" unicode="&#x26;" horiz-adv-x="1808" 
d="M1728 0h-516l-129 129q-62 -75 -198 -123t-288 -48q-78 0 -152.5 14.5t-139.5 46t-112 78.5q-122 122 -122 292q0 91 39 180t115 159.5t179 110.5q-147 131 -147 302q0 96 56 179t170 132.5t277 49.5l17 -1h15q74 0 140 -16.5t123 -46.5q108 -56 162.5 -148.5
t54.5 -195.5q0 -74 -27.5 -144t-81.5 -129t-130 -95l113 -129q21 13 37 33.5t35 53.5l25 42h420l-258 -387zM901 1131q0 41 -31 68t-95 27q-60 0 -88.5 -26.5t-28.5 -68.5q0 -44 28 -90t73 -73q64 20 103 68t39 95zM855 371l-209 209q-145 -63 -145 -158q0 -42 32.5 -83.5
t102.5 -41.5q108 0 219 74z" />
    <glyph glyph-name="quotesingle" unicode="'" horiz-adv-x="662" 
d="M808 1534l-387 -322h-292l226 322h453z" />
    <glyph glyph-name="parenleft" unicode="(" horiz-adv-x="792" 
d="M695 1501q-37 -87 -75 -198q-12 -38 -26 -85q-17 -60 -42 -157q-33 -135 -50.5 -255.5t-17.5 -225.5q0 -107 16 -228q8 -62 18 -124t25 -132q27 -132 63 -254q18 -61 35.5 -112.5t37.5 -100.5h-357q-77 130 -128.5 282t-76 310.5t-24.5 325.5q0 130 15.5 264t45 256
t71.5 229.5t97 204.5h373z" />
    <glyph glyph-name="parenright" unicode=")" horiz-adv-x="792" 
d="M715 565q0 -125 -15 -247.5t-45 -242.5q-15 -59 -32.5 -115t-40.5 -116q-42 -111 -98 -215h-371q32 112 59 212.5t46 178.5q38 156 61 312q10 71 16 146.5t6 143.5q0 200 -44.5 404.5t-143.5 457.5h371q231 -426 231 -919z" />
    <glyph glyph-name="asterisk" unicode="*" horiz-adv-x="1130" 
d="M1050 1097l-291 -96l195 -242l-195 -162l-179 275l-176 -275l-211 162l195 242l-291 82l82 242l272 -113v289h244v-289l259 113z" />
    <glyph glyph-name="plus" unicode="+" horiz-adv-x="1341" 
d="M1195 404h-403v-404h-242v404h-404v242h404v404h242v-404h403v-242z" />
    <glyph glyph-name="comma" unicode="," horiz-adv-x="679" 
d="M550 97q0 -225 -114.5 -346.5t-338.5 -121.5v192q211 32 211 179h-211v437h453v-340z" />
    <glyph glyph-name="hyphen" unicode="-" horiz-adv-x="1341" 
d="M1195 404h-1047l-2 242h1047z" />
    <glyph glyph-name="period" unicode="." horiz-adv-x="679" 
d="M550 0h-437v437h437v-437z" />
    <glyph glyph-name="slash" unicode="/" horiz-adv-x="566" 
d="M629 1484l-272 -1047l-164 -630h-273l271 1048l164 629h274z" />
    <glyph glyph-name="zero" unicode="0" 
d="M1308 742q0 -99 -8 -179t-27 -155q-35 -143 -108.5 -242.5t-191.5 -154.5q-60 -28 -131 -44t-147 -16q-201 0 -347 90t-223.5 253t-77.5 368v40t2 40q0 86 14 170q8 51 31 142q34 131 102.5 222.5t186.5 143.5q65 29 132 45q80 19 164 19q73 0 140.5 -13.5t128.5 -38.5
q118 -47 198.5 -138.5t121 -228.5t40.5 -323zM872 742q0 201 -43.5 302.5t-149.5 101.5q-195 0 -195 -404q0 -227 41 -339t154 -112q193 0 193 451z" />
    <glyph glyph-name="one" unicode="1" 
d="M968 0h-435v855h-340v291q136 23 215 48.5t142 94t80 195.5h338v-1047v-437z" />
    <glyph glyph-name="two" unicode="2" 
d="M1345 992v-45q-3 -18 -4 -26q-11 -89 -83 -173t-165 -147.5t-238 -145.5q-139 -77 -176 -100h646v-355h-1048h-164q-4 31 -4.5 42.5t-0.5 18.5q0 84 40 170t125.5 176.5t210.5 172.5q165 111 253 177q81 62 117 114t36 113l-2 33q0 45 -50.5 80.5t-113.5 35.5
q-80 0 -135.5 -64t-55.5 -197h-404q0 89 18 169.5t49 151.5q59 133 194.5 205t368.5 72q208 0 339.5 -66.5t189 -174t57.5 -237.5z" />
    <glyph glyph-name="three" unicode="3" 
d="M1304 434q0 -121 -74 -236t-214 -188.5t-314 -73.5h-23q-190 0 -330 66t-216 190q-40 64 -62 137t-22 155h419q0 -92 62.5 -150t144.5 -58q87 0 149 63q34 36 34 99q0 66 -54.5 112.5t-187.5 46.5h-36v242l23 -1q62 0 116.5 22t89 59t34.5 75q0 61 -84 103q-37 14 -80 14
q-67 0 -118.5 -34.5t-60.5 -108.5h-403q0 78 22 142.5t66 123.5q80 110 214.5 165t295.5 55q92 0 167 -16.5t144 -50.5q128 -59 192.5 -154t64.5 -197q0 -84 -42.5 -157t-123.5 -120q103 -55 155 -140t52 -185z" />
    <glyph glyph-name="four" unicode="4" 
d="M1292 291h-179v-291h-418v291h-662v355l677 791h403v-824h179v-322zM695 613v420l-324 -420h324z" />
    <glyph glyph-name="five" unicode="5" 
d="M1311 451q0 -149 -86.5 -263.5t-230.5 -175.5t-315 -61q-249 0 -415.5 111.5t-214.5 325.5l435 33q26 -63 79.5 -95.5t115.5 -32.5q51 0 94 22q21 10 39.5 26.5t32.5 38.5q27 44 27 104q0 94 -56.5 144t-136.5 50q-50 0 -94 -21.5t-68 -59.5h-420l145 840h953v-354h-629
l-49 -195q137 69 296 69q124 0 233.5 -48t180.5 -151q38 -56 59.5 -119.5t21.5 -138.5z" />
    <glyph glyph-name="six" unicode="6" 
d="M1325 484q0 -145 -64.5 -267.5t-189 -194t-296.5 -71.5q-129 0 -246.5 25.5t-228 101t-181 220.5t-70.5 364q0 202 54 379.5t194.5 295t381.5 117.5q107 0 228.5 -27t230.5 -113t137 -248l-403 -33q-51 115 -168 115q-66 0 -124 -35q-51 -29 -73.5 -116.5t-22.5 -157.5
q146 101 321 101q99 0 190 -33t166 -97q71 -60 116 -145q23 -44 35.5 -88.5t12.5 -92.5zM883 456q0 77 -50.5 133.5t-137.5 56.5t-137.5 -57.5t-50.5 -131.5q0 -75 49.5 -128.5t138.5 -53.5q90 0 139 52.5t49 128.5z" />
    <glyph glyph-name="seven" unicode="7" 
d="M1275 1097q-121 -98 -210 -235q-43 -65 -81 -140.5t-66 -150.5q-57 -155 -83.5 -303t-26.5 -268h-453q58 659 500 1083h-758v354h1047h131v-340z" />
    <glyph glyph-name="eight" unicode="8" 
d="M1311 418q0 -116 -63.5 -218.5t-201.5 -167.5t-351 -65q-222 0 -369 64.5t-215.5 167.5t-68.5 219t63.5 215t169.5 142q-88 37 -140 118t-52 177q0 104 61 196.5t193 153.5q67 31 148 47.5t177 16.5h28q187 0 317 -60.5t191 -156t61 -198.5q0 -96 -50.5 -176t-142.5 -118
q71 -17 127 -69.5t87 -130t31 -157.5zM854 1029q0 40 -20 73q-20 36 -61 56.5t-94 20.5q-87 0 -134 -42.5t-47 -103.5q0 -58 47.5 -101.5t133.5 -43.5q85 0 130 41.5t45 99.5zM873 460q0 74 -53 130t-141 56q-93 0 -146.5 -55t-53.5 -126t52 -122q27 -26 63 -39t85 -13
q94 0 144 50t50 119z" />
    <glyph glyph-name="nine" unicode="9" 
d="M1296 752v-14v-12q0 -47 -4 -80q0 -112 -27 -213q-23 -86 -67 -169q-77 -145 -179 -211t-194 -84t-179 -18q-130 0 -255 40t-214 129.5t-113 234.5l404 16q8 -39 64 -78t119 -39q97 0 157 101q30 53 38.5 107t8.5 118q-132 -108 -320 -108q-128 0 -243.5 55t-187 165
t-71.5 262q0 110 34.5 204t104.5 164t176.5 109t248.5 39q131 0 251 -32.5t220.5 -111t164 -222t63.5 -352.5zM828 961q0 74 -48 129.5t-134 55.5t-133.5 -55t-47.5 -130t48.5 -130.5t132.5 -55.5t133 56t49 130z" />
    <glyph glyph-name="colon" unicode=":" horiz-adv-x="679" 
d="M566 646h-453v437h453v-437zM566 0h-453v437h453v-437z" />
    <glyph glyph-name="semicolon" unicode=";" horiz-adv-x="679" 
d="M566 662h-453v421h453v-421zM566 97q0 -225 -114.5 -346.5t-338.5 -121.5v192q209 30 209 179h-209v437h453v-340z" />
    <glyph glyph-name="less" unicode="&#x3c;" horiz-adv-x="1341" 
d="M1212 -64l-1048 474l-18 11v209l1047 459l19 8v-273l-728 -307l728 -291v-290z" />
    <glyph glyph-name="equal" unicode="=" horiz-adv-x="1341" 
d="M1195 613h-1047l-2 242h1047zM1195 209h-1047l-2 242h1047z" />
    <glyph glyph-name="greater" unicode="&#x3e;" horiz-adv-x="1341" 
d="M1212 404l-1048 -451l-2 -2v275l693 291l-693 291v275l1048 -468l2 -2v-209z" />
    <glyph glyph-name="question" unicode="?" horiz-adv-x="1243" 
d="M1197 1070q0 -125 -80.5 -201t-212.5 -143q-99 -47 -99 -155l3 -38h-404l-2 56q0 92 26 159.5t80.5 117t137.5 88.5q38 10 77 42.5t39 75.5q0 29 -20 58q-11 22 -48 38t-77 16q-55 0 -94.5 -35t-39.5 -111l1 -21h-435q0 51 10 96t30 93q34 88 100 152.5t177.5 103.5
t263.5 39q123 0 249.5 -36.5t217.5 -127.5q46 -46 72 -107.5t26 -132.5zM808 0h-420v388h420v-388z" />
    <glyph glyph-name="at" unicode="@" horiz-adv-x="1501" 
d="M1513 847q0 -55 -12 -121q-22 -118 -104 -224.5t-191.5 -172.5t-200.5 -66q-106 0 -150 92q-87 -79 -201 -79q-84 0 -162 45.5t-126 129.5t-48 195v27.5t4 36.5q19 129 79 222t145 140t175 47q154 0 263 -118l17 96h211l-99 -597v-17q0 -50 30 -50t73 44t76 113.5
t33 135.5v33q0 150 -68 276t-190.5 199.5t-274.5 73.5q-126 0 -233 -42t-185 -120t-121.5 -187t-43.5 -233q0 -158 74.5 -290.5t213.5 -211.5t324 -79l34 1q82 0 184 35t173 94h209q-77 -132 -218.5 -228t-427.5 -96q-166 0 -309.5 60t-248.5 167.5t-161.5 247t-56.5 286.5
l1 30q0 137 55.5 273.5t161.5 248.5q103 108 252 172.5t323 64.5q141 0 271.5 -48.5t232 -138t159.5 -210t58 -257.5zM920 712q0 70 -39 123t-106 53q-90 0 -142.5 -63t-52.5 -143q0 -68 38 -116.5t108 -48.5q93 0 143.5 58.5t50.5 136.5z" />
    <glyph glyph-name="A" unicode="A" horiz-adv-x="1583" 
d="M1583 0h-500l-50 193h-483l-50 -193h-500l375 1048l158 436h517l375 -1047zM937 500l-145 484l-146 -484h291z" />
    <glyph glyph-name="B" unicode="B" horiz-adv-x="1583" 
d="M1530 419q0 -106 -58.5 -202t-182 -156.5t-299.5 -60.5h-854v1048v436h742q186 0 315 -60.5t193 -158t64 -201.5q0 -94 -48.5 -170.5t-136.5 -118.5q82 -25 143 -80t91 -127q15 -36 23 -72.5t8 -76.5zM1000 1004q0 45 -41 77t-114 32h-209v-225h192q82 0 127 34.5
t45 81.5zM1055 468q0 51 -39.5 90t-105.5 39h-274v-242h274q72 0 108.5 32.5t36.5 80.5z" />
    <glyph glyph-name="C" unicode="C" horiz-adv-x="1583" 
d="M1550 580q0 -59 -16 -116.5t-47 -117.5q-57 -111 -154 -196t-230 -134.5t-278 -49.5l-33 1q-90 0 -168 15t-155 45q-139 53 -237 150.5t-148.5 236t-50.5 312.5q0 205 57 359.5t160 254t236.5 147t288.5 47.5q286 0 453 -104t230.5 -241t75.5 -268h-468q-77 242 -255 242
h-19q-80 0 -141.5 -59.5t-92.5 -158t-31 -201.5q0 -106 31.5 -199t94.5 -149.5t155 -56.5q87 0 161 55t97 186h484z" />
    <glyph glyph-name="D" unicode="D" horiz-adv-x="1583" 
d="M1551 735q0 -193 -55.5 -335t-160 -230.5t-245.5 -129t-315 -40.5h-645v1048v436h612q166 0 348.5 -64.5t317.5 -225.5q69 -82 105.5 -186t36.5 -233zM1051 759q0 212 -91.5 293t-267.5 81l-79 -3v-775l60 -2q118 0 201 37t130 128.5t47 240.5z" />
    <glyph glyph-name="E" unicode="E" horiz-adv-x="1470" 
d="M1388 0h-1047h-195v1048v422h1047h162v-357h-709v-192h597v-355h-597v-211h742v-355z" />
    <glyph glyph-name="F" unicode="F" 
d="M1308 1146h-662v-291h533v-355h-533v-500h-500v1048v422h1047h115v-324z" />
    <glyph glyph-name="G" unicode="G" horiz-adv-x="1696" 
d="M1583 0h-308l-32 129l-63 -61q-27 -22 -76 -46.5t-121 -39.5t-175 -15q-175 0 -314.5 64t-235 174.5t-143.5 247.5t-48 283q0 203 87 379.5t262 287.5q90 57 194.5 85.5t228.5 28.5q186 0 324.5 -53t228 -137t132 -178t42.5 -181h-469q-34 98 -91.5 138t-166.5 40
q-84 0 -145 -59.5t-93 -156.5t-32 -201q0 -102 31.5 -191.5t96.5 -144t158 -54.5q208 0 275 161h-226v324h679v-824z" />
    <glyph glyph-name="H" unicode="H" horiz-adv-x="1696" 
d="M1566 0h-500v566h-436v-566h-500v1048v436h500v-500h436v500h500v-1047v-437z" />
    <glyph glyph-name="I" unicode="I" horiz-adv-x="792" 
d="M630 0h-500v1048v436h500v-1047v-437z" />
    <glyph glyph-name="J" unicode="J" 
d="M1226 500q0 -85 -15 -154.5t-47 -125.5q-63 -111 -156.5 -169t-187.5 -79t-174 -21q-281 0 -442 153t-161 442q0 56 6 116h451q0 -161 22.5 -242t90.5 -81q113 0 113 161v984h500v-984z" />
    <glyph glyph-name="K" unicode="K" horiz-adv-x="1696" 
d="M1696 0h-599l-355 580l-96 -96v-484h-500v1048v436h500v-451l404 451h580l-533 -563z" />
    <glyph glyph-name="L" unicode="L" 
d="M1308 0h-1047h-115v1048v436h483v-1047v-82h679v-355z" />
    <glyph glyph-name="M" unicode="M" horiz-adv-x="1921" 
d="M1825 0h-453v580l33 324l-259 -904h-354l-259 921l33 -341v-580h-453v1048v436h597l258 -904l258 904h599v-1047v-437z" />
    <glyph glyph-name="N" unicode="N" horiz-adv-x="1696" 
d="M1583 0h-470l-516 792l16 -242v-550h-467v1048v436h451l516 -774l-16 244v530h486v-1047v-437z" />
    <glyph glyph-name="O" unicode="O" horiz-adv-x="1696" 
d="M1646 724q0 -150 -49 -287t-148.5 -247t-249.5 -174.5t-344 -64.5t-347 64t-255 174.5t-154 251t-52 289.5t50.5 289t152 255.5t250.5 184.5q79 36 162.5 55.5t176.5 19.5q189 0 340.5 -66t254.5 -178.5t156 -253.5q27 -73 41.5 -146.5t14.5 -147.5v-18zM1130 759
q0 130 -40 217t-103.5 128.5t-131.5 41.5q-82 0 -147 -44t-103.5 -135.5t-38.5 -224.5q0 -201 78 -310.5t211 -109.5q132 0 203.5 114.5t71.5 322.5z" />
    <glyph glyph-name="P" unicode="P" horiz-adv-x="1499" 
d="M1476 956q0 -94 -37.5 -185.5t-114 -163.5t-191.5 -114t-261 -42h-275v-451h-500v1048v436h758q151 0 265 -44q60 -22 108 -51t89 -68q79 -74 119 -169.5t40 -195.5zM984 973q0 63 -42 110t-118 47h-227v-306h242q67 0 106 44.5t39 104.5z" />
    <glyph glyph-name="Q" unicode="Q" horiz-adv-x="1696" 
d="M1642 758q0 -96 -20.5 -186.5t-61 -176t-106.5 -169.5l176 -177l-225 -228l-210 212q-173 -79 -371 -79q-141 0 -271 44t-234.5 135.5t-174.5 237.5q-36 79 -56 157q-24 93 -24 182l-1 26l-1 32q0 206 71 357t183.5 239.5t241.5 129t250 40.5h23q187 0 339 -62.5
t256.5 -171.5t160 -248t55.5 -294zM1125 729q0 133 -34 226q-18 49 -41.5 83.5t-57.5 59.5q-65 48 -153 48q-98 0 -159.5 -53t-87.5 -142t-26 -192q0 -150 57 -291t201 -141q39 0 80 12l-162 178l212 209l159 -160q12 93 12 163z" />
    <glyph glyph-name="R" unicode="R" horiz-adv-x="1583" 
d="M1534 0h-517q-8 51 -13.5 94t-5.5 78l-8 152q0 35 -5.5 59.5t-16.5 47.5q-18 37 -64 53q-50 21 -141 21l-86 -3l-80 -2v-500h-500v1048v436h775q111 0 196.5 -14t156.5 -45q137 -58 197 -153t60 -205q0 -89 -34 -172.5t-90 -138t-115 -61.5q103 -49 151.5 -105.5
t62 -123.5t13.5 -184v-73q0 -86 10 -117t54 -43v-49zM1010 984q0 54 -40.5 91.5t-114.5 37.5h-275v-258h292q62 0 100 39.5t38 89.5z" />
    <glyph glyph-name="S" unicode="S" horiz-adv-x="1470" 
d="M1422 461q0 -154 -95 -271t-247 -178t-321 -61q-187 0 -345 54t-254 170.5t-96 292.5h469q40 -160 242 -160q71 0 114.5 34.5t43.5 78.5q0 68 -94 96q-98 25 -118 30q-58 15 -140.5 38t-142.5 44.5t-115 50.5q-104 54 -168.5 143.5t-64.5 221.5q0 39 7 85
q12 81 54.5 154.5t116 129.5t177 88t236.5 32h45q256 0 434.5 -108.5t211.5 -375.5h-468q-6 60 -72 97.5t-144 37.5q-104 0 -122 -55q-4 -11 -4 -25q0 -94 293 -151q270 -53 412 -163q74 -57 114 -133t40 -174z" />
    <glyph glyph-name="T" unicode="T" horiz-adv-x="1470" 
d="M1421 1083h-437v-1048v-35h-500v1048v35h-435v401h1048h324v-401z" />
    <glyph glyph-name="U" unicode="U" horiz-adv-x="1696" 
d="M1583 550q0 -142 -49 -254t-144 -189t-230.5 -116.5t-304.5 -39.5q-227 0 -385 71t-241 211t-83 347v904h483v-934q0 -103 69 -164t163 -61q58 0 108.5 25t82 76.5t31.5 123.5v934h500v-934z" />
    <glyph glyph-name="V" unicode="V" horiz-adv-x="1583" 
d="M1534 1484l-353 -1047l-148 -437h-483l-375 1048l-158 436h533l242 -951l258 951h484z" />
    <glyph glyph-name="W" unicode="W" horiz-adv-x="2050" 
d="M2034 1501l-246 -1048l-109 -453h-484l-178 855l-162 -855h-484l-272 1048l-116 436h501l162 -904l146 904h451l162 -904l161 921h468z" />
    <glyph glyph-name="X" unicode="X" horiz-adv-x="1651" 
d="M1646 1484l-563 -725l516 -759h-566l-225 404l-242 -404h-549l516 759l-484 725h564l211 -371l259 371h563z" />
    <glyph glyph-name="Y" unicode="Y" horiz-adv-x="1583" 
d="M1614 1484l-564 -951v-533h-484v533l-549 951h549l242 -483l242 483h564z" />
    <glyph glyph-name="Z" unicode="Z" horiz-adv-x="1470" 
d="M1405 0h-1048h-293v355l728 775h-695v354h1047h228v-354l-710 -775h743v-355z" />
    <glyph glyph-name="bracketleft" unicode="[" horiz-adv-x="792" 
d="M726 -371h-662v1048v807h662v-321h-259v-1048v-164h259v-322z" />
    <glyph glyph-name="backslash" unicode="\" horiz-adv-x="566" 
d="M792 0h-292l-527 1048l-215 422h306l518 -1047z" />
    <glyph glyph-name="bracketright" unicode="]" horiz-adv-x="792" 
d="M710 -371h-646v322h258v1048v147h-273v324h661v-1047v-794z" />
    <glyph glyph-name="asciicircum" unicode="^" horiz-adv-x="1226" 
d="M1179 695l-225 -115l-292 566l-258 -566l-225 115l371 775h242z" />
    <glyph glyph-name="underscore" unicode="_" horiz-adv-x="1017" 
d="M1050 -242h-1048l-2 129h1048z" />
    <glyph glyph-name="grave" unicode="`" horiz-adv-x="662" 
 />
    <glyph glyph-name="a" unicode="a" 
d="M1341 0h-469l-17 113q-49 -62 -160 -103q-54 -21 -111 -31t-120 -10q-114 0 -208 39t-143 121q-44 90 -44 183q0 118 77 205q44 50 122 79q37 14 72.5 24t67.5 16l184 27q117 16 167 32q31 10 49 30.5t18 42.5q0 30 -30 50.5t-86 20.5q-67 0 -107.5 -19.5t-52.5 -77.5
h-436q21 105 51.5 169t96 109.5t180.5 69.5q56 11 131.5 17t168.5 6q227 0 340 -52.5t147.5 -131t45.5 -203.5v-564q0 -87 66 -129v-33zM829 421q0 29 -5 47q-42 -24 -131 -41q-47 -9 -78.5 -18.5t-55.5 -22.5q-42 -21 -42 -78q0 -41 38 -66q38 -23 91 -23q74 0 113 40
q70 67 70 162z" />
    <glyph glyph-name="b" unicode="b" 
d="M1292 550q0 -195 -67.5 -324.5t-176.5 -190.5t-230 -61q-53 0 -100.5 10t-93.5 32q-92 43 -140 113v-129h-404v1048v453h437v-500q48 57 132 91t177 34q118 0 225 -58.5t174 -189.5t67 -328zM872 533q0 97 -46 169.5t-131 72.5q-91 0 -139.5 -67.5t-48.5 -162.5
q0 -50 12 -94.5t38 -83.5q50 -76 138 -76q83 0 130 72q23 36 35 78t12 92z" />
    <glyph glyph-name="c" unicode="c" 
d="M1260 393q0 -145 -76.5 -240t-209 -140.5t-295.5 -45.5h-17q-149 0 -264.5 47t-192.5 128q-39 40 -67.5 86t-49.5 99q-39 102 -39 212q0 54 11 107.5t31 105.5q41 103 120.5 184.5t198.5 129t267 47.5h18q185 0 313.5 -68.5t190 -169t61.5 -190.5l-1 -23h-435
q-12 79 -45 120.5t-100 41.5q-87 0 -137.5 -86.5t-50.5 -200.5q0 -72 19.5 -130t62.5 -95t106 -37q68 0 101.5 33.5t58.5 112.5h420z" />
    <glyph glyph-name="d" unicode="d" 
d="M1259 0h-387v146q-24 -75 -116 -123.5t-208 -48.5q-126 0 -239 57.5t-186.5 184.5t-73.5 317q0 205 70 339t179 193.5t228 59.5q94 0 174 -33.5t124 -90.5v500h435v-1048v-453zM850 539q0 96 -48 166t-140 70q-83 0 -129 -71.5t-46 -170.5q0 -97 45.5 -169.5t129.5 -72.5
q87 0 137.5 74t50.5 174z" />
    <glyph glyph-name="e" unicode="e" 
d="M1311 500l-3 -49h-808q0 -50 17.5 -88.5t50.5 -68.5q62 -54 140 -54q53 0 95.5 26.5t51.5 72.5h420q-12 -76 -53 -142.5t-114 -117.5t-181 -83q-55 -15 -114 -22t-134 -7h-17q-147 0 -260 46.5t-189.5 126t-119.5 183.5q-20 51 -30.5 104t-10.5 106q0 116 38.5 218.5
t115.5 184.5t193.5 129.5t262.5 47.5q196 0 327 -64.5t199.5 -161t95.5 -198t27 -189.5zM888 679q-23 90 -75.5 125t-133.5 35q-79 0 -125 -34t-70 -126h404z" />
    <glyph glyph-name="f" unicode="f" horiz-adv-x="792" 
d="M759 825h-179v-825h-434v825h-146v258h146l-2 50q0 188 93 294.5t280 106.5h242v-291q-109 0 -144 -16.5t-35 -63.5v-80h179v-258z" />
    <glyph glyph-name="g" unicode="g" 
d="M1259 49q0 -186 -117 -303t-416 -117q-202 0 -333 47t-192 120t-72 155h437q10 -30 48 -50t85 -20q63 0 109.5 37.5t46.5 114.5v129q-116 -116 -302 -116q-122 0 -236 59t-184.5 178t-70.5 287l1 23l1 20q0 80 22 154q19 65 57 128q70 114 174.5 168.5t219.5 54.5
q99 0 185 -39.5t133 -110.5v115h404v-1034zM839 580q0 109 -38 160.5t-122 51.5q-91 0 -126.5 -53.5t-35.5 -158.5q0 -102 40 -163.5t122 -61.5q160 0 160 225z" />
    <glyph glyph-name="h" unicode="h" 
d="M1259 0h-435v597q0 81 -45 126t-108 45q-62 0 -108 -45t-46 -126v-597h-437v1048v436h437v-530q34 51 88 90q28 18 56.5 32t61.5 23q61 19 133 19q104 0 195 -41.5t149.5 -128t58.5 -206.5v-742z" />
    <glyph glyph-name="i" unicode="i" horiz-adv-x="679" 
d="M550 1226h-437v308h437v-308zM550 0h-437v1048v49h437v-1048v-49z" />
    <glyph glyph-name="j" unicode="j" horiz-adv-x="679" 
d="M580 1212h-434v305h434v-305zM580 -80q0 -125 -73.5 -189.5t-180.5 -83.5q-55 -9 -116 -14t-132 -5l-60 1h-67v322h36l29 -1q50 0 76.5 7.5t40 32.5t13.5 74v1019h434v-1048v-115z" />
    <glyph glyph-name="k" unicode="k" 
d="M1372 0h-533l-226 371l-63 -63v-308h-453v1048v436h436v-742l275 341h517l-404 -437z" />
    <glyph glyph-name="l" unicode="l" horiz-adv-x="679" 
d="M550 0h-437v1048v453h437v-1048v-453z" />
    <glyph glyph-name="m" unicode="m" horiz-adv-x="2050" 
d="M1954 0h-437v613q0 65 -40.5 99.5t-96.5 34.5t-96.5 -34.5t-40.5 -99.5v-613h-451v613q0 70 -41 108t-97 38t-96.5 -38.5t-40.5 -107.5v-613h-437v1048v35h404v-146q48 74 155.5 129.5t220.5 55.5q101 0 181 -52t122 -166q47 67 113 115t142 72t148 24q104 0 193 -46
t142 -141.5t53 -232.5v-695z" />
    <glyph glyph-name="n" unicode="n" 
d="M1259 0h-435v613q0 71 -43 108.5t-102 37.5t-102.5 -39t-43.5 -107v-613h-436v1048v35h387v-162q63 95 164 144.5t211 49.5q104 0 195.5 -42.5t148 -124t56.5 -189.5v-759z" />
    <glyph glyph-name="o" unicode="o" 
d="M1309 520q0 -189 -87.5 -317t-226.5 -190t-300 -62q-165 0 -308 62t-233 196t-90 341q0 154 58.5 264t152.5 176q49 34 96 57t103 38q103 28 205 28q157 0 297 -57t232 -183q48 -67 74 -147t26 -176zM872 550q0 99 -47 178.5t-146 79.5q-89 0 -134 -80t-45 -178
q0 -105 48 -198t147 -93q95 0 136 90.5t41 200.5z" />
    <glyph glyph-name="p" unicode="p" 
d="M1292 522q0 -195 -67 -324.5t-174 -189t-225 -59.5q-85 0 -162.5 29.5t-130.5 85.5v-452h-453v1048v406h404v-162q33 91 126 145t208 54q60 0 114 -14t109 -45q107 -59 177 -184q35 -63 54.5 -141t19.5 -169v-28zM872 550q0 67 -45.5 146t-131.5 79t-132 -74t-46 -151
q0 -95 36 -177t142 -82q103 0 140 85q17 41 27 86t10 88z" />
    <glyph glyph-name="q" unicode="q" 
d="M1275 -355h-451v452q-27 -60 -106 -96.5t-181 -36.5q-118 0 -227.5 57t-183.5 185q-36 65 -56.5 148.5t-20.5 178.5v23q0 187 68.5 313t179 186t232.5 60q114 0 207 -47.5t136 -130.5v146h403v-1048v-390zM839 550q0 242 -160 242q-105 0 -142 -75t-37 -167
q0 -242 179 -242q104 0 132 71.5t28 170.5z" />
    <glyph glyph-name="r" unicode="r" horiz-adv-x="904" 
d="M888 662q-24 0 -56.5 2.5t-35.5 2.5q-122 0 -184 -53t-62 -193v-421h-453v1048v35h403v-211q45 121 118 174.5t206 53.5l64 -3v-435z" />
    <glyph glyph-name="s" unicode="s" horiz-adv-x="1243" 
d="M1203 325q0 -110 -61.5 -194.5t-187.5 -132.5q-61 -23 -138.5 -35t-169.5 -12q-159 0 -276 27.5t-199.5 110t-106.5 233.5h420q16 -65 57.5 -96.5t93.5 -31.5q26 0 48 6t43 20q41 26 41 60q0 43 -72 75q-53 20 -165 43t-168.5 39.5t-121 53.5t-111.5 106q-22 31 -22 119
q0 91 42.5 176t160 145t320.5 60q177 0 293 -44.5t170.5 -116.5t54.5 -153l-2 -24h-387q-4 46 -39 69.5t-80 23.5q-42 0 -76 -18t-34 -44l3 -15q10 -36 115 -64l227 -60q123 -31 213.5 -89t106.5 -158q8 -43 8 -79z" />
    <glyph glyph-name="t" unicode="t" horiz-adv-x="904" 
d="M808 0q-63 0 -150.5 -6.5t-105.5 -6.5q-71 0 -125 6t-97 20q-83 25 -125.5 88t-42.5 174v533h-162v258h179v322h418v-322h211v-258h-211v-387q0 -117 152 -117h33q17 3 26 4v-308z" />
    <glyph glyph-name="u" unicode="u" 
d="M1275 0h-403v146q-51 -97 -143.5 -146t-203.5 -49q-105 0 -206 46t-161.5 129.5t-60.5 195.5v744h436v-629q0 -62 44 -98t102 -36q60 0 102.5 35.5t42.5 98.5v629h451v-1047v-19z" />
    <glyph glyph-name="v" unicode="v" horiz-adv-x="1243" 
d="M1243 1066l-363 -1047l-8 -19h-468l-379 1048l-8 18h434l195 -662l178 662h419z" />
    <glyph glyph-name="w" unicode="w" horiz-adv-x="1921" 
d="M1888 1066l-332 -1047l-6 -19h-420l-176 613l-146 -613h-420l-349 1048l-6 18h418l162 -629l162 629h371l179 -645l145 645h418z" />
    <glyph glyph-name="x" unicode="x" 
d="M1325 0h-486l-144 291l-162 -291h-484l388 566l-357 500h470l145 -242l144 242h486l-371 -500z" />
    <glyph glyph-name="y" unicode="y" horiz-adv-x="1243" 
d="M1225 1066l-360 -1047l-41 -116q-55 -166 -173 -222.5t-291 -56.5l-94 2l-120 3v307q77 0 124.5 5t72.5 24t25 61q0 29 -13 71l-355 969h437l193 -645l162 645h433z" />
    <glyph glyph-name="z" unicode="z" horiz-adv-x="1130" 
d="M1097 0h-1048v308l484 451h-453v324h986v-308l-469 -453h500v-322z" />
    <glyph glyph-name="braceleft" unicode="{" horiz-adv-x="792" 
d="M759 -371q-120 -13 -197 -13q-383 0 -383 255v420v51q0 82 -27.5 134.5t-118.5 89.5q68 29 99 72.5t39 89.5q4 23 6 49t2 62v469q0 220 391 220q94 0 189 -11q-74 -36 -109 -62t-52.5 -72t-17.5 -124v-467q0 -87 -35 -151t-124 -75q159 -20 159 -244v-386
q0 -123 29.5 -193.5t149.5 -113.5z" />
    <glyph glyph-name="bar" unicode="|" horiz-adv-x="566" 
d="M403 0h-257v1048v502h257v-1047v-503z" />
    <glyph glyph-name="braceright" unicode="}" horiz-adv-x="792" 
d="M742 597q-97 -43 -131 -119q-31 -78 -31 -203v-404q0 -236 -356 -236h-13h-12q-20 0 -44 1t-50 4l-88 5q66 24 100.5 53t48 76.5t13.5 128.5v372q0 96 8.5 153t47.5 105.5t120 63.5q-111 18 -144 74.5t-33 150.5v23l1 27v403q0 103 -36.5 155.5t-142.5 86.5
q143 14 220 14q361 0 361 -224v-8l-1 -7v-404q0 -118 31.5 -193.5t130.5 -97.5z" />
    <glyph glyph-name="asciitilde" unicode="~" horiz-adv-x="1341" 
d="M1195 580q-33 -85 -83 -142t-113 -86.5t-127 -29.5q-74 0 -146 33q-25 9 -79 38t-97 46.5t-81 17.5q-106 0 -178 -149l-145 143q134 270 320 270q27 0 55 -6t59 -20q32 -11 103.5 -44t117.5 -49.5t88 -16.5q107 0 161 141z" />
    <glyph glyph-name="quotesinglbase" unicode="&#x201a;" horiz-adv-x="1932" 
 />
    <glyph glyph-name="quotedblbase" unicode="&#x201e;" horiz-adv-x="662" 
d="M550 0h-437v1048v49h437v-1048v-49z" />
    <glyph glyph-name="ellipsis" unicode="&#x2026;" horiz-adv-x="662" 
d="M580 1212h-289l-371 322h435z" />
    <glyph glyph-name="dagger" unicode="&#x2020;" horiz-adv-x="1932" 
 />
    <glyph glyph-name="daggerdbl" unicode="&#x2021;" horiz-adv-x="1932" 
 />
    <glyph glyph-name="perthousand" unicode="&#x2030;" horiz-adv-x="662" 
d="M808 1534l-387 -322h-292l226 322h453z" />
    <glyph glyph-name="OE" unicode="&#x152;" horiz-adv-x="1669" 
 />
    <glyph glyph-name="quoteleft" unicode="&#x2018;" horiz-adv-x="662" 
d="M808 1212h-291l-388 322h453z" />
    <glyph glyph-name="quoteright" unicode="&#x2019;" horiz-adv-x="1932" 
 />
    <glyph glyph-name="quotedblleft" unicode="&#x201c;" horiz-adv-x="662" 
 />
    <glyph glyph-name="quotedblright" unicode="&#x201d;" horiz-adv-x="662" 
 />
    <glyph glyph-name="bullet" unicode="&#x2022;" horiz-adv-x="1016" 
 />
    <glyph glyph-name="endash" unicode="&#x2013;" horiz-adv-x="662" 
 />
    <glyph glyph-name="emdash" unicode="&#x2014;" horiz-adv-x="679" 
d="M533 371l-403 -274v291l209 129l-209 129v291l403 -258v-308z" />
    <glyph glyph-name="trademark" unicode="&#x2122;" horiz-adv-x="662" 
d="M774 1212h-323l-96 160l-113 -160h-322l259 322h338z" />
    <glyph glyph-name="oe" unicode="&#x153;" horiz-adv-x="1364" 
 />
    <glyph glyph-name="nonbreakingspace" unicode="&#xa0;" horiz-adv-x="250" 
 />
    <glyph glyph-name="exclamdown" unicode="&#xa1;" horiz-adv-x="679" 
d="M566 662h-453v404h453v-404zM550 -404h-437v371l96 566h242l99 -566v-371z" />
    <glyph glyph-name="cent" unicode="&#xa2;" 
d="M1292 421q-12 -142 -67.5 -234t-145 -143.5t-201 -72t-248.5 -20.5l-113 -273h-291l145 339q-105 45 -172.5 122t-102.5 184q-16 52 -25 109t-9 116l1 26l1 23q0 62 19 119t56 119q68 114 205 185.5t338 71.5q65 0 142 -9l97 242h291l-129 -324q192 -143 192 -339h-403
l-193 -420q72 0 121.5 30.5t71.5 148.5h420zM759 792q-48 15 -87 15q-92 0 -139 -81.5t-47 -184.5q0 -121 64 -233z" />
    <glyph glyph-name="sterling" unicode="&#xa3;" 
d="M1325 97q-175 -139 -341 -139q-131 0 -338 91q-65 25 -145 25q-168 0 -275 -107l-177 355q66 33 130.5 109t64.5 173l-2 26h-193v209h113q-61 122 -61 242q0 100 51.5 185.5t172.5 143.5q71 34 141 52q86 22 180 22l47 2q174 0 309.5 -60t212.5 -180.5t77 -291.5h-404
q-12 94 -55 143t-107 49q-70 0 -123 -26.5t-53 -91.5q0 -74 80 -189h225v-209h-209q0 -45 -28 -104.5t-85 -104.5q30 6 69 6q124 0 253 -56q48 -20 93 -20q57 0 109.5 27t88.5 73z" />
    <glyph glyph-name="currency" unicode="&#xa4;" horiz-adv-x="1341" 
d="M1195 275l-162 -162l-96 96q-110 -72 -266 -72q-154 0 -267 72l-96 -96l-162 162l96 96q-85 150 -85 287q0 141 85 263l-96 96l162 162l96 -96q110 72 273 72q162 0 260 -72l96 96l162 -162l-98 -96q80 -143 80 -282q0 -135 -80 -268zM912 636q0 62 -28.5 120.5t-85.5 95
t-136 36.5q-67 0 -118 -33.5t-77.5 -91t-26.5 -117.5q0 -98 62.5 -170t176.5 -72q112 0 172.5 69t60.5 163z" />
    <glyph glyph-name="yen" unicode="&#xa5;" 
d="M1372 404h-468v-404h-453v404h-468v209h454l-98 179h-356v225h259l-259 484h485l211 -484l209 484h484l-242 -500h242v-209h-371l-80 -179h451v-209z" />
    <glyph glyph-name="brokenbar" unicode="&#xa6;" 
d="M1275 1501l-32 -289q-78 29 -125 29q-56 0 -81 -35t-46 -139l-23 -113h211v-244h-258l-129 -727q-38 -206 -164.5 -293t-294.5 -87q-128 0 -253 42l49 275q95 -28 137 -28q56 0 88.5 38.5t49.5 133.5l113 646h-226v244h275l14 129q20 164 84.5 261t162.5 139t227 42
q98 0 221 -24z" />
    <glyph glyph-name="section" unicode="&#xa7;" 
d="M1226 613q0 -135 -55.5 -215t-137.5 -107q65 -53 101 -129.5t36 -156.5q0 -107 -66 -194.5t-200 -132.5q-100 -34 -212 -34q-92 0 -179 25q-44 12 -82.5 30t-73.5 44q-68 49 -108 125t-40 175v9v12h324q14 -88 53 -124q19 -17 51 -27t73 -10q49 0 83 24.5t34 59.5
q0 56 -85 93q-28 15 -141 53q-54 18 -93 32.5t-71 27.5q-160 64 -234.5 163.5t-74.5 210.5q0 76 31.5 144.5t84 116t111.5 60.5q-65 51 -105.5 132t-40.5 166q0 142 115 241q60 52 147.5 79.5t207.5 27.5q51 0 126.5 -14t153 -55.5t132.5 -128.5t55 -223h-338
q0 163 -129 163q-56 0 -91 -26t-35 -61t34.5 -67.5t107.5 -55.5q93 -27 185.5 -64.5t168.5 -89t126.5 -127t50.5 -172.5zM928 523q0 65 -104 107l-291 129q-97 -55 -97 -112q0 -55 97 -97l291 -129q45 12 74.5 40.5t29.5 61.5z" />
    <glyph glyph-name="dieresis" unicode="&#xa8;" horiz-adv-x="662" 
d="M775 1226h-371v291h371v-291zM308 1226h-372v291h372v-291z" />
    <glyph glyph-name="copyright" unicode="&#xa9;" horiz-adv-x="1614" 
d="M1614 726q0 -219 -104 -400t-280 -285.5t-375 -104.5q-200 0 -387 96t-303 272.5t-116 409.5v13v15q0 89 18 169.5t53 158.5q66 145 176 244.5t250.5 151t292.5 51.5q74 0 143 -14t141 -45q137 -58 250 -168q110 -107 175.5 -253.5t65.5 -310.5zM1405 742q0 113 -43 218
t-118.5 187.5t-178 130t-215.5 47.5h-26q-159 0 -289 -72t-203 -204t-73 -307q0 -177 71.5 -316t204.5 -218t304 -79q170 0 299 87t198 228.5t69 297.5zM1228 580q0 -52 -42 -126q-21 -36 -51.5 -67.5t-71.5 -58.5q-82 -53 -191 -53q-55 0 -102.5 10.5t-93.5 32.5
q-84 40 -141.5 107t-86 150.5t-28.5 169.5q0 114 48 216t143 166q48 33 105.5 50.5t122.5 17.5q85 0 173.5 -38t146.5 -107q31 -37 49 -77.5t18 -84.5h-176q-34 79 -81 104t-130 25q-102 0 -160.5 -83t-58.5 -194q0 -117 65.5 -203t186.5 -86q58 0 112 34.5t66 111.5h176z
" />
    <glyph glyph-name="ordfeminine" unicode="&#xaa;" horiz-adv-x="808" 
d="M824 839h-274l-17 65q-17 -29 -98 -55.5t-166 -26.5q-104 0 -175 46q-36 24 -56.5 61.5t-20.5 87.5q0 89 49.5 146t192.5 80l89 12q84 11 118 25.5t34 44.5q0 22 -20 33.5t-49 11.5q-34 0 -65 -15.5t-44 -46.5h-273q0 88 62.5 138.5t147.5 68.5q44 9 87.5 14t90.5 5
q146 0 223.5 -30t104.5 -84.5t27 -144.5v-307q0 -41 4.5 -56.5t27.5 -39.5v-33zM824 517h-791v162h791v-162zM517 1146l-72 -24l-74 -25q-61 -20 -61 -53q0 -17 18 -31q18 -12 43 -12q146 0 146 145z" />
    <glyph glyph-name="guillemotleft" unicode="&#xab;" 
d="M1113 113l-371 258v308l371 242v-291l-192 -113l192 -113v-291zM629 113l-387 258v308l387 242v-275l-193 -129l193 -129v-275z" />
    <glyph glyph-name="logicalnot" unicode="&#xac;" horiz-adv-x="662" 
d="M1195 226h-241v354h-808v244h1047z" />
    <glyph glyph-name="minus" unicode="&#xad;" horiz-adv-x="1932" 
 />
    <glyph glyph-name="registered" unicode="&#xae;" horiz-adv-x="1614" 
d="M1614 726q0 -219 -104 -400t-280 -285.5t-375 -104.5q-200 0 -387 96t-303 272.5t-116 409.5v13v15q0 89 18 169.5t53 158.5q66 145 176 244.5t250.5 151t292.5 51.5q74 0 143 -14t141 -45q137 -58 250 -168q110 -107 175.5 -253.5t65.5 -310.5zM1405 742q0 113 -43 218
t-118.5 187.5t-178 130t-215.5 47.5h-26q-159 0 -289 -72t-203 -204t-73 -307q0 -177 71.5 -316t204.5 -218t304 -79q170 0 299 87t198 228.5t69 297.5zM1259 904q0 -242 -242 -242l195 -354h-211l-177 354h-129v-354h-195v855h421q178 0 258 -74t80 -185zM1080 900
q0 47 -34.5 82t-91.5 35h-259v-225h259q61 0 93.5 32t32.5 76z" />
    <glyph glyph-name="macron" unicode="&#xaf;" horiz-adv-x="1932" 
 />
    <glyph glyph-name="degree" unicode="&#xb0;" horiz-adv-x="1932" 
 />
    <glyph glyph-name="plusminus" unicode="&#xb1;" horiz-adv-x="1017" 
d="M1033 371h-1048l-2 291h1048z" />
    <glyph glyph-name="twosuperior" unicode="&#xb2;" 
d="M1195 726h-307v-1048v-49h-420v1048v49h-306v340h306v418h420v-418h307v-340z" />
    <glyph glyph-name="threesuperior" unicode="&#xb3;" 
d="M1212 17h-324v-388h-420v388h-306v338h306v437h-306v321h306v388h420v-388h324v-321h-324v-437h324v-338z" />
    <glyph glyph-name="acute" unicode="&#xb4;" horiz-adv-x="1932" 
 />
    <glyph glyph-name="mu" unicode="&#xb5;" horiz-adv-x="1932" 
 />
    <glyph glyph-name="paragraph" unicode="&#xb6;" horiz-adv-x="1728" 
d="M1454 1130h-113v-1048v-437h-340v1048v437h-162v-1048v-437h-339v1048v66q-131 0 -223.5 50t-140 131t-47.5 173q0 96 52.5 181.5t156 137.5t252.5 52h904v-354z" />
    <glyph glyph-name="periodcentered" unicode="&#xb7;" horiz-adv-x="1017" 
d="M844 718q0 -89 -39.5 -169.5t-116.5 -128.5q-38 -23 -86 -36t-102 -13q-113 0 -192 48.5t-119.5 128.5t-40.5 171q0 90 38.5 169.5t114.5 132.5t183 62q113 0 194.5 -51.5t123.5 -136t42 -177.5z" />
    <glyph glyph-name="periodcentered" unicode="&#x2219;" horiz-adv-x="1017" 
d="M844 718q0 -89 -39.5 -169.5t-116.5 -128.5q-38 -23 -86 -36t-102 -13q-113 0 -192 48.5t-119.5 128.5t-40.5 171q0 90 38.5 169.5t114.5 132.5t183 62q113 0 194.5 -51.5t123.5 -136t42 -177.5z" />
    <glyph glyph-name="cedilla" unicode="&#xb8;" horiz-adv-x="662" 
d="M595 -280q0 -34 -15 -75q-28 -76 -97 -112t-158 -36q-79 0 -152 23q-39 13 -68.5 26.5t-55.5 32.5l48 99q104 -48 192 -48q99 0 99 62q0 31 -27.5 48.5t-68.5 17.5q-40 0 -83 -17l-63 50l129 209h129l-65 -129l43 2q45 0 82 -9t69 -29q62 -39 62 -115z" />
    <glyph glyph-name="onesuperior" unicode="&#xb9;" horiz-adv-x="1017" 
d="M937 -17q0 -97 -47.5 -182.5t-128.5 -137.5t-170 -52l-25 1v195q160 0 160 176h-160v388h371v-388zM437 -17q0 -106 -55 -192t-145 -132.5t-188 -46.5v195q160 0 160 176h-160v388h388v-388z" />
    <glyph glyph-name="ordmasculine" unicode="&#xba;" horiz-adv-x="808" 
d="M808 1163q0 -99 -44 -175.5t-132 -119.5t-211 -43q-128 0 -218.5 43t-138 120t-47.5 175l-2 28q0 96 49 170q26 39 58.5 66.5t79.5 48.5q90 41 202 41q206 0 305 -98.5t99 -255.5zM792 533h-775v146h775v-146zM533 1163q0 162 -112 162q-113 0 -113 -162t113 -162
q112 0 112 162z" />
    <glyph glyph-name="guillemotright" unicode="&#xbb;" 
d="M1113 371l-387 -258v275l195 145l-195 113v275l387 -242v-308zM613 371l-387 -258v291l194 129l-194 113v275l387 -242v-308z" />
    <glyph glyph-name="onequarter" unicode="&#xbc;" horiz-adv-x="2050" 
d="M1954 0h-453v421h453v-421zM1259 0h-451v421h451v-421zM566 0h-453v421h453v-421z" />
    <glyph glyph-name="onehalf" unicode="&#xbd;" horiz-adv-x="2050" 
d="M2054 280q0 -88 -40.5 -167.5t-119.5 -128t-182 -48.5q-107 0 -186.5 50t-120.5 131.5t-41 171.5q0 133 85 231q44 51 104 79q65 31 143 31q58 0 105 -15t93 -44q82 -51 121 -127.5t39 -163.5zM659 1202q0 -91 -40.5 -175.5t-121 -136t-189.5 -51.5q-52 0 -97 14t-86 41
q-78 51 -117.5 132t-39.5 171q0 89 37.5 166t115.5 128q41 28 84 42q50 17 103 17q56 0 103 -13.5t91 -40.5q79 -48 118 -126.5t39 -167.5zM1146 1501l-582 -1048l-273 -486h-194l584 1048l273 486h192zM1298 282q0 -90 -40 -169t-119 -128t-185 -49q-107 0 -185.5 50
t-120 132.5t-41.5 172.5q0 87 38 162.5t118 123.5q39 24 88 38.5t103 14.5q55 0 100 -13.5t88 -40.5q78 -49 117 -127.5t39 -166.5zM1797 274q0 32 -22 56.5t-63 24.5q-38 0 -61.5 -24.5t-23.5 -56.5t23 -56.5t62 -24.5q40 0 62.5 24.5t22.5 56.5zM408 1187q0 36 -22.5 62
t-63.5 26q-38 0 -61.5 -26.5t-23.5 -61.5t23 -62.5t62 -27.5q40 0 64 26q22 26 22 64zM1038 274q0 34 -22.5 57.5t-61.5 23.5q-40 0 -63.5 -24.5t-23.5 -56.5t23 -56.5t64 -24.5q39 0 61.5 23.5t22.5 57.5z" />
    <glyph glyph-name="threequarters" unicode="&#xbe;" horiz-adv-x="1932" 
 />
    <glyph glyph-name="questiondown" unicode="&#xbf;" horiz-adv-x="1243" 
d="M855 646h-434v420h434v-420zM1215 -7q0 -112 -73.5 -215t-198.5 -166t-264 -63q-133 0 -245.5 24.5t-199.5 75.5t-136 127.5t-49 174.5q0 86 25 144t66.5 96t102.5 68l96 49q112 42 112 209h388q11 -57 11 -102q0 -126 -72 -214t-198 -121q-38 -9 -60.5 -40t-22.5 -65
q0 -42 38 -74q38 -30 111 -30q129 0 129 162h437z" />
    <glyph glyph-name="Agrave" unicode="&#xc0;" horiz-adv-x="1583" 
d="M1583 0h-500l-50 193h-483l-50 -193h-500l375 1048l158 436h517l375 -1047zM937 500l-145 484l-146 -484h291z" />
    <glyph glyph-name="Agrave" unicode="&#x410;" horiz-adv-x="1583" 
d="M1583 0h-500l-50 193h-483l-50 -193h-500l375 1048l158 436h517l375 -1047zM937 500l-145 484l-146 -484h291z" />
    <glyph glyph-name="Aacute" unicode="&#xc1;" horiz-adv-x="1530" 
d="M1515 455q0 -117 -65 -223t-192.5 -170.5t-304.5 -64.5l-75 3h-753v1048v436h1048h229v-309h-776v-269h268l70 3q135 0 237.5 -37t172.5 -101.5t105.5 -146.5t35.5 -169zM1040 477q0 51 -45.5 90.5t-122.5 39.5h-246v-256h233q88 0 134.5 36.5t46.5 89.5z" />
    <glyph glyph-name="Aacute" unicode="&#x411;" horiz-adv-x="1530" 
d="M1515 455q0 -117 -65 -223t-192.5 -170.5t-304.5 -64.5l-75 3h-753v1048v436h1048h229v-309h-776v-269h268l70 3q135 0 237.5 -37t172.5 -101.5t105.5 -146.5t35.5 -169zM1040 477q0 51 -45.5 90.5t-122.5 39.5h-246v-256h233q88 0 134.5 36.5t46.5 89.5z" />
    <glyph glyph-name="Acircumflex" unicode="&#xc2;" horiz-adv-x="1583" 
d="M1530 419q0 -106 -58.5 -202t-182 -156.5t-299.5 -60.5h-854v1048v436h742q186 0 315 -60.5t193 -158t64 -201.5q0 -94 -48.5 -170.5t-136.5 -118.5q82 -25 143 -80t91 -127q15 -36 23 -72.5t8 -76.5zM1000 1004q0 45 -41 77t-114 32h-209v-225h192q82 0 127 34.5
t45 81.5zM1055 468q0 51 -39.5 90t-105.5 39h-274v-242h274q72 0 108.5 32.5t36.5 80.5z" />
    <glyph glyph-name="Acircumflex" unicode="&#x412;" horiz-adv-x="1583" 
d="M1530 419q0 -106 -58.5 -202t-182 -156.5t-299.5 -60.5h-854v1048v436h742q186 0 315 -60.5t193 -158t64 -201.5q0 -94 -48.5 -170.5t-136.5 -118.5q82 -25 143 -80t91 -127q15 -36 23 -72.5t8 -76.5zM1000 1004q0 45 -41 77t-114 32h-209v-225h192q82 0 127 34.5
t45 81.5zM1055 468q0 51 -39.5 90t-105.5 39h-274v-242h274q72 0 108.5 32.5t36.5 80.5z" />
    <glyph glyph-name="Atilde" unicode="&#xc3;" horiz-adv-x="1353" 
d="M1300 1163h-671v-1048v-115h-504v1048v436h1048h127v-321z" />
    <glyph glyph-name="Atilde" unicode="&#x413;" horiz-adv-x="1353" 
d="M1300 1163h-671v-1048v-115h-504v1048v436h1048h127v-321z" />
    <glyph glyph-name="Adieresis" unicode="&#xc4;" horiz-adv-x="1919" 
d="M1860 -308h-511v310h-754v-297l-539 -5v641q67 0 123.5 52.5t95.5 123t51 113.5q36 109 62.5 280t41.5 335.5t15 238.5h1048h209v-1047v-35l158 -4v-706zM1228 394v724h-346l-2 -86q0 -84 -12 -188q-8 -97 -42.5 -224t-97.5 -226h500z" />
    <glyph glyph-name="Adieresis" unicode="&#x414;" horiz-adv-x="1919" 
d="M1860 -308h-511v310h-754v-297l-539 -5v641q67 0 123.5 52.5t95.5 123t51 113.5q36 109 62.5 280t41.5 335.5t15 238.5h1048h209v-1047v-35l158 -4v-706zM1228 394v724h-346l-2 -86q0 -84 -12 -188q-8 -97 -42.5 -224t-97.5 -226h500z" />
    <glyph glyph-name="Aring" unicode="&#xc5;" horiz-adv-x="1470" 
d="M1388 0h-1047h-195v1048v422h1047h162v-357h-709v-192h597v-355h-597v-211h742v-355z" />
    <glyph glyph-name="Aring" unicode="&#x415;" horiz-adv-x="1470" 
d="M1388 0h-1047h-195v1048v422h1047h162v-357h-709v-192h597v-355h-597v-211h742v-355z" />
    <glyph glyph-name="AE" unicode="&#xc6;" horiz-adv-x="2534" 
d="M2495 0h-555l-330 578l-91 -102v-476h-502v476l-92 102l-326 -578h-560l560 915l-498 569h537l379 -453v453h502v-453l378 453h537l-494 -569z" />
    <glyph glyph-name="AE" unicode="&#x416;" horiz-adv-x="2534" 
d="M2495 0h-555l-330 578l-91 -102v-476h-502v476l-92 102l-326 -578h-560l560 915l-498 569h537l379 -453v453h502v-453l378 453h537l-494 -569z" />
    <glyph glyph-name="Ccedilla" unicode="&#xc7;" horiz-adv-x="1458" 
d="M1415 423q0 -139 -102.5 -248t-262 -169t-320.5 -60q-79 0 -187 15q-54 8 -108.5 23.5t-114.5 40.5q-115 49 -196 154t-81 268h470q0 -85 63.5 -134.5t147.5 -49.5q78 0 132.5 43.5t54.5 125.5v8l-1 7q0 86 -40.5 126.5t-90 48t-87.5 10t-93 2.5v291h121q176 0 176 127
q0 137 -186 137q-130 0 -167.5 -41.5t-37.5 -109.5h-400q0 243 174.5 367.5t450.5 124.5q132 0 273 -33t244.5 -121t103.5 -240l1 -44q0 -101 -27 -156.5t-90.5 -87.5t-180.5 -58q86 0 169 -39.5t137.5 -124.5t54.5 -203z" />
    <glyph glyph-name="Ccedilla" unicode="&#x417;" horiz-adv-x="1458" 
d="M1415 423q0 -139 -102.5 -248t-262 -169t-320.5 -60q-79 0 -187 15q-54 8 -108.5 23.5t-114.5 40.5q-115 49 -196 154t-81 268h470q0 -85 63.5 -134.5t147.5 -49.5q78 0 132.5 43.5t54.5 125.5v8l-1 7q0 86 -40.5 126.5t-90 48t-87.5 10t-93 2.5v291h121q176 0 176 127
q0 137 -186 137q-130 0 -167.5 -41.5t-37.5 -109.5h-400q0 243 174.5 367.5t450.5 124.5q132 0 273 -33t244.5 -121t103.5 -240l1 -44q0 -101 -27 -156.5t-90.5 -87.5t-180.5 -58q86 0 169 -39.5t137.5 -124.5t54.5 -203z" />
    <glyph glyph-name="Egrave" unicode="&#xc8;" horiz-adv-x="1702" 
d="M1579 0h-467v546l16 246l-513 -792h-473v1048v436h487v-535l-14 -237l513 772h451v-1047v-437z" />
    <glyph glyph-name="Egrave" unicode="&#x418;" horiz-adv-x="1702" 
d="M1579 0h-467v546l16 246l-513 -792h-473v1048v436h487v-535l-14 -237l513 772h451v-1047v-437z" />
    <glyph glyph-name="Eacute" unicode="&#xc9;" horiz-adv-x="1704" 
d="M1310 1871q0 -92 -61 -156.5t-159 -97.5q-49 -16 -99.5 -24t-106.5 -8q-110 0 -205.5 32t-155 96t-59.5 152q0 45 16 93h156q0 -22 5.5 -40t15.5 -31q17 -24 65 -39t162 -33q85 0 168 33.5t83 93.5l-1 16h162q14 -48 14 -87zM1585 0h-467v546l16 246l-513 -792h-472v1048
v436h487v-533l-15 -239l513 772h451v-1047v-437z" />
    <glyph glyph-name="Eacute" unicode="&#x419;" horiz-adv-x="1704" 
d="M1310 1871q0 -92 -61 -156.5t-159 -97.5q-49 -16 -99.5 -24t-106.5 -8q-110 0 -205.5 32t-155 96t-59.5 152q0 45 16 93h156q0 -22 5.5 -40t15.5 -31q17 -24 65 -39t162 -33q85 0 168 33.5t83 93.5l-1 16h162q14 -48 14 -87zM1585 0h-467v546l16 246l-513 -792h-472v1048
v436h487v-533l-15 -239l513 772h451v-1047v-437z" />
    <glyph glyph-name="Ecircumflex" unicode="&#xca;" horiz-adv-x="1743" 
d="M1696 0h-599l-355 580l-96 -96v-484h-500v1048v436h500v-451l404 451h580l-533 -563z" />
    <glyph glyph-name="Ecircumflex" unicode="&#x41a;" horiz-adv-x="1743" 
d="M1696 0h-599l-355 580l-96 -96v-484h-500v1048v436h500v-451l404 451h580l-533 -563z" />
    <glyph glyph-name="Edieresis" unicode="&#xcb;" horiz-adv-x="1819" 
d="M1669 0h-492v1048v29h-404v-35l1 -41q0 -291 -28 -477t-77 -289t-121 -171q-38 -53 -128 -77t-196 -24q-111 0 -164 18v364q12 -5 28 -5q39 0 80.5 25.5t65.5 69.5q39 76 53 233t14 365q0 36 -2 137.5t-2 129.5l-4 154q0 12 0.5 18.5t1.5 11.5h1048h326v-397v-1048v-39z
" />
    <glyph glyph-name="Edieresis" unicode="&#x41b;" horiz-adv-x="1819" 
d="M1669 0h-492v1048v29h-404v-35l1 -41q0 -291 -28 -477t-77 -289t-121 -171q-38 -53 -128 -77t-196 -24q-111 0 -164 18v364q12 -5 28 -5q39 0 80.5 25.5t65.5 69.5q39 76 53 233t14 365q0 36 -2 137.5t-2 129.5l-4 154q0 12 0.5 18.5t1.5 11.5h1048h326v-397v-1048v-39z
" />
    <glyph glyph-name="Igrave" unicode="&#xcc;" horiz-adv-x="1921" 
d="M1825 0h-453v580l33 324l-259 -904h-354l-259 921l33 -341v-580h-453v1048v436h597l258 -904l258 904h599v-1047v-437z" />
    <glyph glyph-name="Igrave" unicode="&#x41c;" horiz-adv-x="1921" 
d="M1825 0h-453v580l33 324l-259 -904h-354l-259 921l33 -341v-580h-453v1048v436h597l258 -904l258 904h599v-1047v-437z" />
    <glyph glyph-name="Iacute" unicode="&#xcd;" horiz-adv-x="1696" 
d="M1566 0h-500v566h-436v-566h-500v1048v436h500v-500h436v500h500v-1047v-437z" />
    <glyph glyph-name="Iacute" unicode="&#x41d;" horiz-adv-x="1696" 
d="M1566 0h-500v566h-436v-566h-500v1048v436h500v-500h436v500h500v-1047v-437z" />
    <glyph glyph-name="Icircumflex" unicode="&#xce;" horiz-adv-x="1696" 
d="M1646 724q0 -150 -49 -287t-148.5 -247t-249.5 -174.5t-344 -64.5t-347 64t-255 174.5t-154 251t-52 289.5t50.5 289t152 255.5t250.5 184.5q79 36 162.5 55.5t176.5 19.5q189 0 340.5 -66t254.5 -178.5t156 -253.5q27 -73 41.5 -146.5t14.5 -147.5v-18zM1130 759
q0 130 -40 217t-103.5 128.5t-131.5 41.5q-82 0 -147 -44t-103.5 -135.5t-38.5 -224.5q0 -201 78 -310.5t211 -109.5q132 0 203.5 114.5t71.5 322.5z" />
    <glyph glyph-name="Icircumflex" unicode="&#x41e;" horiz-adv-x="1696" 
d="M1646 724q0 -150 -49 -287t-148.5 -247t-249.5 -174.5t-344 -64.5t-347 64t-255 174.5t-154 251t-52 289.5t50.5 289t152 255.5t250.5 184.5q79 36 162.5 55.5t176.5 19.5q189 0 340.5 -66t254.5 -178.5t156 -253.5q27 -73 41.5 -146.5t14.5 -147.5v-18zM1130 759
q0 130 -40 217t-103.5 128.5t-131.5 41.5q-82 0 -147 -44t-103.5 -135.5t-38.5 -224.5q0 -201 78 -310.5t211 -109.5q132 0 203.5 114.5t71.5 322.5z" />
    <glyph glyph-name="Idieresis" unicode="&#xcf;" horiz-adv-x="1712" 
d="M1562 0h-502v1048v20h-432v-1047v-21h-503v1048v436h1048h389v-1047v-437z" />
    <glyph glyph-name="Idieresis" unicode="&#x41f;" horiz-adv-x="1712" 
d="M1562 0h-502v1048v20h-432v-1047v-21h-503v1048v436h1048h389v-1047v-437z" />
    <glyph glyph-name="Eth" unicode="&#xd0;" horiz-adv-x="1517" 
d="M1476 956q0 -94 -37.5 -185.5t-114 -163.5t-191.5 -114t-261 -42h-275v-451h-500v1048v436h758q151 0 265 -44q60 -22 108 -51t89 -68q79 -74 119 -169.5t40 -195.5zM984 973q0 63 -42 110t-118 47h-227v-306h242q67 0 106 44.5t39 104.5z" />
    <glyph glyph-name="Eth" unicode="&#x420;" horiz-adv-x="1517" 
d="M1476 956q0 -94 -37.5 -185.5t-114 -163.5t-191.5 -114t-261 -42h-275v-451h-500v1048v436h758q151 0 265 -44q60 -22 108 -51t89 -68q79 -74 119 -169.5t40 -195.5zM984 973q0 63 -42 110t-118 47h-227v-306h242q67 0 106 44.5t39 104.5z" />
    <glyph glyph-name="Ntilde" unicode="&#xd1;" horiz-adv-x="1583" 
d="M1550 580q0 -59 -16 -116.5t-47 -117.5q-57 -111 -154 -196t-230 -134.5t-278 -49.5l-33 1q-90 0 -168 15t-155 45q-139 53 -237 150.5t-148.5 236t-50.5 312.5q0 205 57 359.5t160 254t236.5 147t288.5 47.5q286 0 453 -104t230.5 -241t75.5 -268h-468q-77 242 -255 242
h-19q-80 0 -141.5 -59.5t-92.5 -158t-31 -201.5q0 -106 31.5 -199t94.5 -149.5t155 -56.5q87 0 161 55t97 186h484z" />
    <glyph glyph-name="Ntilde" unicode="&#x421;" horiz-adv-x="1583" 
d="M1550 580q0 -59 -16 -116.5t-47 -117.5q-57 -111 -154 -196t-230 -134.5t-278 -49.5l-33 1q-90 0 -168 15t-155 45q-139 53 -237 150.5t-148.5 236t-50.5 312.5q0 205 57 359.5t160 254t236.5 147t288.5 47.5q286 0 453 -104t230.5 -241t75.5 -268h-468q-77 242 -255 242
h-19q-80 0 -141.5 -59.5t-92.5 -158t-31 -201.5q0 -106 31.5 -199t94.5 -149.5t155 -56.5q87 0 161 55t97 186h484z" />
    <glyph glyph-name="Ograve" unicode="&#xd2;" horiz-adv-x="1470" 
d="M1421 1083h-437v-1048v-35h-500v1048v35h-435v401h1048h324v-401z" />
    <glyph glyph-name="Ograve" unicode="&#x422;" horiz-adv-x="1470" 
d="M1421 1083h-437v-1048v-35h-500v1048v35h-435v401h1048h324v-401z" />
    <glyph glyph-name="Oacute" unicode="&#xd3;" horiz-adv-x="1618" 
d="M1574 1480l-571 -1047l-95 -172q-21 -59 -83 -119.5t-146.5 -101t-161.5 -40.5h-267v375l31 2l44 -2l45 -2q89 0 137 68l51 90l-558 949h529l269 -561l223 561h553z" />
    <glyph glyph-name="Oacute" unicode="&#x423;" horiz-adv-x="1618" 
d="M1574 1480l-571 -1047l-95 -172q-21 -59 -83 -119.5t-146.5 -101t-161.5 -40.5h-267v375l31 2l44 -2l45 -2q89 0 137 68l51 90l-558 949h529l269 -561l223 561h553z" />
    <glyph glyph-name="Ocircumflex" unicode="&#xd4;" horiz-adv-x="2354" 
d="M2294 823q0 -99 -37.5 -187.5t-114.5 -161.5t-190.5 -114.5t-259.5 -41.5h-271v-322h-498v322h-273q-145 0 -259.5 41.5t-190 114t-113.5 162.5t-38 188q0 104 39 196.5t119 169.5t198 121q59 22 124.5 33t143.5 11h250v125h479v-125h267q152 0 267.5 -43.5t196.5 -120
t121 -170.5t40 -198zM1800 840q0 64 -44 111.5t-122 47.5h-213v-308h232q69 0 108 44.5t39 104.5zM923 691v308h-218q-77 0 -121.5 -47.5t-44.5 -111.5q0 -61 40.5 -105t109.5 -44h234z" />
    <glyph glyph-name="Ocircumflex" unicode="&#x424;" horiz-adv-x="2354" 
d="M2294 823q0 -99 -37.5 -187.5t-114.5 -161.5t-190.5 -114.5t-259.5 -41.5h-271v-322h-498v322h-273q-145 0 -259.5 41.5t-190 114t-113.5 162.5t-38 188q0 104 39 196.5t119 169.5t198 121q59 22 124.5 33t143.5 11h250v125h479v-125h267q152 0 267.5 -43.5t196.5 -120
t121 -170.5t40 -198zM1800 840q0 64 -44 111.5t-122 47.5h-213v-308h232q69 0 108 44.5t39 104.5zM923 691v308h-218q-77 0 -121.5 -47.5t-44.5 -111.5q0 -61 40.5 -105t109.5 -44h234z" />
    <glyph glyph-name="Otilde" unicode="&#xd5;" horiz-adv-x="1655" 
d="M1646 1484l-563 -725l516 -759h-566l-225 404l-242 -404h-549l516 759l-484 725h564l211 -371l259 371h563z" />
    <glyph glyph-name="Otilde" unicode="&#x425;" horiz-adv-x="1655" 
d="M1646 1484l-563 -725l516 -759h-566l-225 404l-242 -404h-549l516 759l-484 725h564l211 -371l259 371h563z" />
    <glyph glyph-name="Odieresis" unicode="&#xd6;" horiz-adv-x="1763" 
d="M1720 -277l-510 2v271h-1048h-43v1048v436h507v-1047v-17h430v1048v16h496v-1047v-17h168v-693z" />
    <glyph glyph-name="Odieresis" unicode="&#x426;" horiz-adv-x="1763" 
d="M1720 -277l-510 2v271h-1048h-43v1048v436h507v-1047v-17h430v1048v16h496v-1047v-17h168v-693z" />
    <glyph glyph-name="multiply" unicode="&#xd7;" horiz-adv-x="1669" 
d="M1538 0h-502v568l-609 4q-137 0 -229 67q-47 34 -72 80.5t-25 106.5v658h502v-397l-1 -8v-7q0 -44 21 -65t62 -21h351v498h502v-1047v-437z" />
    <glyph glyph-name="multiply" unicode="&#x427;" horiz-adv-x="1669" 
d="M1538 0h-502v568l-609 4q-137 0 -229 67q-47 34 -72 80.5t-25 106.5v658h502v-397l-1 -8v-7q0 -44 21 -65t62 -21h351v498h502v-1047v-437z" />
    <glyph glyph-name="Oslash" unicode="&#xd8;" horiz-adv-x="2432" 
d="M2328 0h-1046h-1048h-133v1048v436h504v-1047v-21h351v1048v23l504 -3v-1047v-21h361v1048v23h507v-1048v-439z" />
    <glyph glyph-name="Oslash" unicode="&#x428;" horiz-adv-x="2432" 
d="M2328 0h-1046h-1048h-133v1048v436h504v-1047v-21h351v1048v23l504 -3v-1047v-21h361v1048v23h507v-1048v-439z" />
    <glyph glyph-name="Ugrave" unicode="&#xd9;" horiz-adv-x="2575" 
d="M2514 -275h-501v273h-1047h-835v1048v434h503v-1047v-21h356l2 1048l3 20h498v-1047v-21h363v1048v20h502v-1047v-21h156v-687z" />
    <glyph glyph-name="Ugrave" unicode="&#x429;" horiz-adv-x="2575" 
d="M2514 -275h-501v273h-1047h-835v1048v434h503v-1047v-21h356l2 1048l3 20h498v-1047v-21h363v1048v20h502v-1047v-21h156v-687z" />
    <glyph glyph-name="Uacute" unicode="&#xda;" horiz-adv-x="1802" 
d="M1719 528q0 -135 -73 -256q-36 -61 -89 -110t-126 -87q-143 -75 -340 -75h-752v1048v22h-300v414h808v-455h266q150 0 264 -41.5t189.5 -111.5t114 -160.5t38.5 -187.5zM1226 507q0 60 -39 104.5t-108 44.5h-232v-307h217q77 0 119.5 47t42.5 111z" />
    <glyph glyph-name="Uacute" unicode="&#x42a;" horiz-adv-x="1802" 
d="M1719 528q0 -135 -73 -256q-36 -61 -89 -110t-126 -87q-143 -75 -340 -75h-752v1048v22h-300v414h808v-455h266q150 0 264 -41.5t189.5 -111.5t114 -160.5t38.5 -187.5zM1226 507q0 60 -39 104.5t-108 44.5h-232v-307h217q77 0 119.5 47t42.5 111z" />
    <glyph glyph-name="Ucircumflex" unicode="&#xdb;" horiz-adv-x="2288" 
d="M2151 0h-503v1048v436h503v-1047v-437zM1492 524q0 -100 -39.5 -193t-119 -169t-196 -119t-261.5 -43h-755v1048v432h498v-451h267q147 0 263 -42t191 -112.5t113.5 -162t38.5 -188.5zM1003 507q0 61 -38.5 106t-107.5 45h-238v-305l228 -2q75 0 115.5 46t40.5 110z" />
    <glyph glyph-name="Ucircumflex" unicode="&#x42b;" horiz-adv-x="2288" 
d="M2151 0h-503v1048v436h503v-1047v-437zM1492 524q0 -100 -39.5 -193t-119 -169t-196 -119t-261.5 -43h-755v1048v432h498v-451h267q147 0 263 -42t191 -112.5t113.5 -162t38.5 -188.5zM1003 507q0 61 -38.5 106t-107.5 45h-238v-305l228 -2q75 0 115.5 46t40.5 110z" />
    <glyph glyph-name="Udieresis" unicode="&#xdc;" horiz-adv-x="1585" 
d="M1510 526q0 -101 -39 -194t-119.5 -169t-198 -119.5t-265.5 -43.5h-757v1048v436h503v-453h268q148 0 263.5 -41t191.5 -112.5t114.5 -163t38.5 -188.5zM1017 512q0 62 -38 105t-105 43h-240v-307h221q77 0 119.5 47t42.5 112z" />
    <glyph glyph-name="Udieresis" unicode="&#x42c;" horiz-adv-x="1585" 
d="M1510 526q0 -101 -39 -194t-119.5 -169t-198 -119.5t-265.5 -43.5h-757v1048v436h503v-453h268q148 0 263.5 -41t191.5 -112.5t114.5 -163t38.5 -188.5zM1017 512q0 62 -38 105t-105 43h-240v-307h221q77 0 119.5 47t42.5 112z" />
    <glyph glyph-name="Yacute" unicode="&#xdd;" horiz-adv-x="1657" 
d="M1599 734q0 -89 -12 -167t-38 -150q-49 -141 -148 -242t-242 -153q-69 -27 -149.5 -40t-172.5 -13l-42 -1q-201 0 -365.5 72.5t-261.5 203.5q-50 67 -78 141t-28 154h496q32 -218 293 -218q112 0 174 74q32 38 49 91.5t17 126.5h-435v287h441l1 25q0 81 -33.5 139t-90 88
t-122.5 30l-8 -1h-7q-42 0 -78 -7t-66 -19q-49 -18 -79 -55q-13 -17 -28 -46t-28 -64h-496q0 60 21 125q18 54 57 127q70 127 242 218.5t461 91.5q159 0 295 -47.5t242 -149.5q102 -98 160.5 -254.5t58.5 -366.5z" />
    <glyph glyph-name="Yacute" unicode="&#x42d;" horiz-adv-x="1657" 
d="M1599 734q0 -89 -12 -167t-38 -150q-49 -141 -148 -242t-242 -153q-69 -27 -149.5 -40t-172.5 -13l-42 -1q-201 0 -365.5 72.5t-261.5 203.5q-50 67 -78 141t-28 154h496q32 -218 293 -218q112 0 174 74q32 38 49 91.5t17 126.5h-435v287h441l1 25q0 81 -33.5 139t-90 88
t-122.5 30l-8 -1h-7q-42 0 -78 -7t-66 -19q-49 -18 -79 -55q-13 -17 -28 -46t-28 -64h-496q0 60 21 125q18 54 57 127q70 127 242 218.5t461 91.5q159 0 295 -47.5t242 -149.5q102 -98 160.5 -254.5t58.5 -366.5z" />
    <glyph glyph-name="Thorn" unicode="&#xde;" horiz-adv-x="2489" 
d="M2423 742q0 -78 -12 -150t-38 -144q-50 -140 -149 -249.5t-249 -173.5t-341 -64q-171 0 -305 46.5t-229 129.5t-152 191.5t-81 237.5l-229 4v-570h-507v1048v436h507v-504h252q36 114 96 210t150.5 171.5t211.5 120.5q63 24 132 38t140 14q243 0 423 -113.5t277 -296.5
q49 -93 76 -189.5t27 -192.5zM1909 757q0 130 -41.5 219t-104 130.5t-129.5 41.5q-128 0 -208.5 -104.5t-80.5 -301.5q0 -202 77 -310t212 -108q133 0 204 113t71 320z" />
    <glyph glyph-name="Thorn" unicode="&#x42e;" horiz-adv-x="2489" 
d="M2423 742q0 -78 -12 -150t-38 -144q-50 -140 -149 -249.5t-249 -173.5t-341 -64q-171 0 -305 46.5t-229 129.5t-152 191.5t-81 237.5l-229 4v-570h-507v1048v436h507v-504h252q36 114 96 210t150.5 171.5t211.5 120.5q63 24 132 38t140 14q243 0 423 -113.5t277 -296.5
q49 -93 76 -189.5t27 -192.5zM1909 757q0 130 -41.5 219t-104 130.5t-129.5 41.5q-128 0 -208.5 -104.5t-80.5 -301.5q0 -202 77 -310t212 -108q133 0 204 113t71 320z" />
    <glyph glyph-name="germandbls" unicode="&#xdf;" horiz-adv-x="1665" 
d="M1532 0h-501v496l-168 2l-242 -496h-565l348 593q-85 25 -156.5 86t-113 151t-41.5 201q0 103 61 206t212 174t395 71h771v-1047v-437zM1046 855v258h-265q-78 0 -119 -38t-41 -91q0 -50 38 -89.5t102 -39.5h285z" />
    <glyph glyph-name="germandbls" unicode="&#x42f;" horiz-adv-x="1665" 
d="M1532 0h-501v496l-168 2l-242 -496h-565l348 593q-85 25 -156.5 86t-113 151t-41.5 201q0 103 61 206t212 174t395 71h771v-1047v-437zM1046 855v258h-265q-78 0 -119 -38t-41 -91q0 -50 38 -89.5t102 -39.5h285z" />
    <glyph glyph-name="agrave" unicode="&#xe0;" 
d="M1341 0h-469l-17 113q-49 -62 -160 -103q-54 -21 -111 -31t-120 -10q-114 0 -208 39t-143 121q-44 90 -44 183q0 118 77 205q44 50 122 79q37 14 72.5 24t67.5 16l184 27q117 16 167 32q31 10 49 30.5t18 42.5q0 30 -30 50.5t-86 20.5q-67 0 -107.5 -19.5t-52.5 -77.5
h-436q21 105 51.5 169t96 109.5t180.5 69.5q56 11 131.5 17t168.5 6q227 0 340 -52.5t147.5 -131t45.5 -203.5v-564q0 -87 66 -129v-33zM829 421q0 29 -5 47q-42 -24 -131 -41q-47 -9 -78.5 -18.5t-55.5 -22.5q-42 -21 -42 -78q0 -41 38 -66q38 -23 91 -23q74 0 113 40
q70 67 70 162z" />
    <glyph glyph-name="agrave" unicode="&#x430;" 
d="M1341 0h-469l-17 113q-49 -62 -160 -103q-54 -21 -111 -31t-120 -10q-114 0 -208 39t-143 121q-44 90 -44 183q0 118 77 205q44 50 122 79q37 14 72.5 24t67.5 16l184 27q117 16 167 32q31 10 49 30.5t18 42.5q0 30 -30 50.5t-86 20.5q-67 0 -107.5 -19.5t-52.5 -77.5
h-436q21 105 51.5 169t96 109.5t180.5 69.5q56 11 131.5 17t168.5 6q227 0 340 -52.5t147.5 -131t45.5 -203.5v-564q0 -87 66 -129v-33zM829 421q0 29 -5 47q-42 -24 -131 -41q-47 -9 -78.5 -18.5t-55.5 -22.5q-42 -21 -42 -78q0 -41 38 -66q38 -23 91 -23q74 0 113 40
q70 67 70 162z" />
    <glyph glyph-name="aacute" unicode="&#xe1;" horiz-adv-x="1361" 
d="M1307 519q0 -190 -89 -318t-232 -188t-301 -60q-162 0 -305 60t-233.5 193.5t-90.5 339.5l-1 62q0 305 71.5 492t187 276t239.5 114q69 14 138.5 21.5t149.5 7.5q102 0 102 43h244q0 -35 -14.5 -71t-43.5 -75q-55 -73 -93 -102q-69 -49 -128 -57q-32 -3 -53 -5
q-74 -7 -134 -7q-63 0 -110.5 -9.5t-80.5 -27.5q-60 -33 -93 -129q125 36 240 36q153 0 293.5 -57t234.5 -185q49 -67 75 -148t26 -179v-13zM866 546q0 65 -20 124q-10 30 -25 54.5t-37 45.5q-41 40 -107 40q-90 0 -136.5 -82t-46.5 -182q0 -63 20 -130t63.5 -112t107.5 -45
q98 0 139.5 88t41.5 199z" />
    <glyph glyph-name="aacute" unicode="&#x431;" horiz-adv-x="1361" 
d="M1307 519q0 -190 -89 -318t-232 -188t-301 -60q-162 0 -305 60t-233.5 193.5t-90.5 339.5l-1 62q0 305 71.5 492t187 276t239.5 114q69 14 138.5 21.5t149.5 7.5q102 0 102 43h244q0 -35 -14.5 -71t-43.5 -75q-55 -73 -93 -102q-69 -49 -128 -57q-32 -3 -53 -5
q-74 -7 -134 -7q-63 0 -110.5 -9.5t-80.5 -27.5q-60 -33 -93 -129q125 36 240 36q153 0 293.5 -57t234.5 -185q49 -67 75 -148t26 -179v-13zM866 546q0 65 -20 124q-10 30 -25 54.5t-37 45.5q-41 40 -107 40q-90 0 -136.5 -82t-46.5 -182q0 -63 20 -130t63.5 -112t107.5 -45
q98 0 139.5 88t41.5 199z" />
    <glyph glyph-name="acircumflex" unicode="&#xe2;" horiz-adv-x="1384" 
d="M1320 278q0 -76 -50 -139t-152 -101q-53 -20 -115 -30t-142 -10l-29 1l-25 1h-697v1048v18h535q60 6 126 6q169 0 285 -41t171 -109t55 -144q0 -72 -47.5 -136.5t-134.5 -102.5q103 -34 161.5 -106t58.5 -155zM859 732q0 60 -39.5 78t-129.5 18h-40h-37h-45v-194l35 -1
h28l36 -2h34q42 0 68.5 4.5t49.5 15.5q40 21 40 81zM859 318q0 71 -50 92t-151 21h-62h-26v-191l99 -3q190 0 190 81z" />
    <glyph glyph-name="acircumflex" unicode="&#x432;" horiz-adv-x="1384" 
d="M1320 278q0 -76 -50 -139t-152 -101q-53 -20 -115 -30t-142 -10l-29 1l-25 1h-697v1048v18h535q60 6 126 6q169 0 285 -41t171 -109t55 -144q0 -72 -47.5 -136.5t-134.5 -102.5q103 -34 161.5 -106t58.5 -155zM859 732q0 60 -39.5 78t-129.5 18h-40h-37h-45v-194l35 -1
h28l36 -2h34q42 0 68.5 4.5t49.5 15.5q40 21 40 81zM859 318q0 71 -50 92t-151 21h-62h-26v-191l99 -3q190 0 190 81z" />
    <glyph glyph-name="atilde" unicode="&#xe3;" horiz-adv-x="1113" 
d="M1083 736h-539v-736h-437v1048v18h976v-330z" />
    <glyph glyph-name="atilde" unicode="&#x433;" horiz-adv-x="1113" 
d="M1083 736h-539v-736h-437v1048v18h976v-330z" />
    <glyph glyph-name="adieresis" unicode="&#xe4;" horiz-adv-x="1464" 
d="M1425 -246h-379v246h-622v-246h-383v546h58l22 4l10 5l13 9q26 68 51.5 194t42 277.5t16.5 276.5h1034v-766h137v-546zM849 300v436h-197q0 -57 -5 -94t-16 -88q-16 -68 -69 -254h287z" />
    <glyph glyph-name="adieresis" unicode="&#x434;" horiz-adv-x="1464" 
d="M1425 -246h-379v246h-622v-246h-383v546h58l22 4l10 5l13 9q26 68 51.5 194t42 277.5t16.5 276.5h1034v-766h137v-546zM849 300v436h-197q0 -57 -5 -94t-16 -88q-16 -68 -69 -254h287z" />
    <glyph glyph-name="aring" unicode="&#xe5;" 
d="M1311 500l-3 -49h-808q0 -50 17.5 -88.5t50.5 -68.5q62 -54 140 -54q53 0 95.5 26.5t51.5 72.5h420q-12 -76 -53 -142.5t-114 -117.5t-181 -83q-55 -15 -114 -22t-134 -7h-17q-147 0 -260 46.5t-189.5 126t-119.5 183.5q-20 51 -30.5 104t-10.5 106q0 116 38.5 218.5
t115.5 184.5t193.5 129.5t262.5 47.5q196 0 327 -64.5t199.5 -161t95.5 -198t27 -189.5zM888 679q-23 90 -75.5 125t-133.5 35q-79 0 -125 -34t-70 -126h404z" />
    <glyph glyph-name="aring" unicode="&#x435;" 
d="M1311 500l-3 -49h-808q0 -50 17.5 -88.5t50.5 -68.5q62 -54 140 -54q53 0 95.5 26.5t51.5 72.5h420q-12 -76 -53 -142.5t-114 -117.5t-181 -83q-55 -15 -114 -22t-134 -7h-17q-147 0 -260 46.5t-189.5 126t-119.5 183.5q-20 51 -30.5 104t-10.5 106q0 116 38.5 218.5
t115.5 184.5t193.5 129.5t262.5 47.5q196 0 327 -64.5t199.5 -161t95.5 -198t27 -189.5zM888 679q-23 90 -75.5 125t-133.5 35q-79 0 -125 -34t-70 -126h404z" />
    <glyph glyph-name="ae" unicode="&#xe6;" horiz-adv-x="2093" 
d="M2089 0h-537l-223 369l-66 -59v-310h-437v310l-65 59l-228 -369h-533l453 650l-406 420h540l254 -324v320h408v-320l250 324h543l-410 -420z" />
    <glyph glyph-name="ae" unicode="&#x436;" horiz-adv-x="2093" 
d="M2089 0h-537l-223 369l-66 -59v-310h-437v310l-65 59l-228 -369h-533l453 650l-406 420h540l254 -324v320h408v-320l250 324h543l-410 -420z" />
    <glyph glyph-name="ccedilla" unicode="&#xe7;" horiz-adv-x="1273" 
d="M1225 324q0 -212 -177 -281.5t-400 -69.5q-588 0 -588 361h434v-8v-7q0 -67 35.5 -97.5t128.5 -30.5q78 18 99.5 46.5t21.5 66.5q0 74 -53.5 119t-188.5 45v182q43 -5 72 -5q79 0 128.5 28t49.5 88q0 67 -31.5 94.5t-107.5 34.5q-42 0 -70.5 -8.5t-42.5 -21.5
t-24.5 -35.5t-20.5 -59.5h-420q0 54 19 101.5t51 87.5q61 74 149 114t188.5 56t199.5 16q180 0 293 -44t162.5 -118t49.5 -168q0 -86 -44.5 -152.5t-171.5 -99.5q82 0 141.5 -37.5t88.5 -92.5t29 -104z" />
    <glyph glyph-name="ccedilla" unicode="&#x437;" horiz-adv-x="1273" 
d="M1225 324q0 -212 -177 -281.5t-400 -69.5q-588 0 -588 361h434v-8v-7q0 -67 35.5 -97.5t128.5 -30.5q78 18 99.5 46.5t21.5 66.5q0 74 -53.5 119t-188.5 45v182q43 -5 72 -5q79 0 128.5 28t49.5 88q0 67 -31.5 94.5t-107.5 34.5q-42 0 -70.5 -8.5t-42.5 -21.5
t-24.5 -35.5t-20.5 -59.5h-420q0 54 19 101.5t51 87.5q61 74 149 114t188.5 56t199.5 16q180 0 293 -44t162.5 -118t49.5 -168q0 -86 -44.5 -152.5t-171.5 -99.5q82 0 141.5 -37.5t88.5 -92.5t29 -104z" />
    <glyph glyph-name="egrave" unicode="&#xe8;" horiz-adv-x="1378" 
d="M1269 0h-445l4 503l-32 -99l-267 -404h-432v1048v18h428v-525l45 97l283 424l416 4v-1047v-19z" />
    <glyph glyph-name="egrave" unicode="&#x438;" horiz-adv-x="1378" 
d="M1269 0h-445l4 503l-32 -99l-267 -404h-432v1048v18h428v-525l45 97l283 424l416 4v-1047v-19z" />
    <glyph glyph-name="eacute" unicode="&#xe9;" horiz-adv-x="1374" 
d="M1012 1370q0 -71 -46.5 -121.5t-125 -76.5t-165.5 -26q-135 0 -233 58.5t-98 161.5q0 36 13 75h125q0 -18 3.5 -30.5t11.5 -25.5q13 -18 52.5 -30.5t129.5 -27.5q32 0 65 7.5t67 20.5q63 24 63 71l-2 15h129q11 -38 11 -71zM1275 0h-444l4 503l-33 -99l-267 -404h-432
v1048v18h432l-4 -525l45 99l283 424l416 2v-1047v-19z" />
    <glyph glyph-name="eacute" unicode="&#x439;" horiz-adv-x="1374" 
d="M1012 1370q0 -71 -46.5 -121.5t-125 -76.5t-165.5 -26q-135 0 -233 58.5t-98 161.5q0 36 13 75h125q0 -18 3.5 -30.5t11.5 -25.5q13 -18 52.5 -30.5t129.5 -27.5q32 0 65 7.5t67 20.5q63 24 63 71l-2 15h129q11 -38 11 -71zM1275 0h-444l4 503l-33 -99l-267 -404h-432
v1048v18h432l-4 -525l45 99l283 424l416 2v-1047v-19z" />
    <glyph glyph-name="ecircumflex" unicode="&#xea;" horiz-adv-x="1370" 
d="M1378 0h-539l-218 367l-63 -59v-308h-451v1048v16l451 2v-324l250 322h523l-406 -416z" />
    <glyph glyph-name="ecircumflex" unicode="&#x43a;" horiz-adv-x="1370" 
d="M1378 0h-539l-218 367l-63 -59v-308h-451v1048v16l451 2v-324l250 322h523l-406 -416z" />
    <glyph glyph-name="edieresis" unicode="&#xeb;" horiz-adv-x="1466" 
d="M1355 0h-434v753h-271q0 -105 -10 -218q-5 -55 -19 -180t-41.5 -199.5t-73.5 -106.5t-135 -49h-336v275q115 0 166 57q13 26 23 69.5t10 97.5q0 4 13 189q6 85 6 154q0 224 22 224h1048h32v-1047v-19z" />
    <glyph glyph-name="edieresis" unicode="&#x43b;" horiz-adv-x="1466" 
d="M1355 0h-434v753h-271q0 -105 -10 -218q-5 -55 -19 -180t-41.5 -199.5t-73.5 -106.5t-135 -49h-336v275q115 0 166 57q13 26 23 69.5t10 97.5q0 4 13 189q6 85 6 154q0 224 22 224h1048h32v-1047v-19z" />
    <glyph glyph-name="igrave" unicode="&#xec;" horiz-adv-x="1692" 
d="M1589 0h-443v562l-26 -164l-130 -398h-305l-127 398l-25 164v-562h-436v1048v22h563l154 -447l25 -116l26 116l156 449h568v-1047v-25z" />
    <glyph glyph-name="igrave" unicode="&#x43c;" horiz-adv-x="1692" 
d="M1589 0h-443v562l-26 -164l-130 -398h-305l-127 398l-25 164v-562h-436v1048v22h563l154 -447l25 -116l26 116l156 449h568v-1047v-25z" />
    <glyph glyph-name="iacute" unicode="&#xed;" horiz-adv-x="1386" 
d="M1275 0h-444v414h-294v-414h-432v1048v16h432v-336h289v338h449v-1047v-19z" />
    <glyph glyph-name="iacute" unicode="&#x43d;" horiz-adv-x="1386" 
d="M1275 0h-444v414h-294v-414h-432v1048v16h432v-336h289v338h449v-1047v-19z" />
    <glyph glyph-name="icircumflex" unicode="&#xee;" 
d="M1309 520q0 -189 -87.5 -317t-226.5 -190t-300 -62q-165 0 -308 62t-233 196t-90 341q0 154 58.5 264t152.5 176q49 34 96 57t103 38q103 28 205 28q157 0 297 -57t232 -183q48 -67 74 -147t26 -176zM872 550q0 99 -47 178.5t-146 79.5q-89 0 -134 -80t-45 -178
q0 -105 48 -198t147 -93q95 0 136 90.5t41 200.5z" />
    <glyph glyph-name="icircumflex" unicode="&#x43e;" 
d="M1309 520q0 -189 -87.5 -317t-226.5 -190t-300 -62q-165 0 -308 62t-233 196t-90 341q0 154 58.5 264t152.5 176q49 34 96 57t103 38q103 28 205 28q157 0 297 -57t232 -183q48 -67 74 -147t26 -176zM872 550q0 99 -47 178.5t-146 79.5q-89 0 -134 -80t-45 -178
q0 -105 48 -198t147 -93q95 0 136 90.5t41 200.5z" />
    <glyph glyph-name="idieresis" unicode="&#xef;" horiz-adv-x="1380" 
d="M1271 0h-443v746h-299l4 -746h-430v1048v18h1047h121v-1047v-19z" />
    <glyph glyph-name="idieresis" unicode="&#x43f;" horiz-adv-x="1380" 
d="M1271 0h-443v746h-299l4 -746h-430v1048v18h1047h121v-1047v-19z" />
    <glyph glyph-name="eth" unicode="&#xf0;" 
d="M1292 522q0 -195 -67 -324.5t-174 -189t-225 -59.5q-85 0 -162.5 29.5t-130.5 85.5v-452h-453v1048v406h404v-162q33 91 126 145t208 54q60 0 114 -14t109 -45q107 -59 177 -184q35 -63 54.5 -141t19.5 -169v-28zM872 550q0 67 -45.5 146t-131.5 79t-132 -74t-46 -151
q0 -95 36 -177t142 -82q103 0 140 85q17 41 27 86t10 88z" />
    <glyph glyph-name="eth" unicode="&#x440;" 
d="M1292 522q0 -195 -67 -324.5t-174 -189t-225 -59.5q-85 0 -162.5 29.5t-130.5 85.5v-452h-453v1048v406h404v-162q33 91 126 145t208 54q60 0 114 -14t109 -45q107 -59 177 -184q35 -63 54.5 -141t19.5 -169v-28zM872 550q0 67 -45.5 146t-131.5 79t-132 -74t-46 -151
q0 -95 36 -177t142 -82q103 0 140 85q17 41 27 86t10 88z" />
    <glyph glyph-name="ntilde" unicode="&#xf1;" 
d="M1260 393q0 -145 -76.5 -240t-209 -140.5t-295.5 -45.5h-17q-149 0 -264.5 47t-192.5 128q-39 40 -67.5 86t-49.5 99q-39 102 -39 212q0 54 11 107.5t31 105.5q41 103 120.5 184.5t198.5 129t267 47.5h18q185 0 313.5 -68.5t190 -169t61.5 -190.5l-1 -23h-435
q-12 79 -45 120.5t-100 41.5q-87 0 -137.5 -86.5t-50.5 -200.5q0 -72 19.5 -130t62.5 -95t106 -37q68 0 101.5 33.5t58.5 112.5h420z" />
    <glyph glyph-name="ntilde" unicode="&#x441;" 
d="M1260 393q0 -145 -76.5 -240t-209 -140.5t-295.5 -45.5h-17q-149 0 -264.5 47t-192.5 128q-39 40 -67.5 86t-49.5 99q-39 102 -39 212q0 54 11 107.5t31 105.5q41 103 120.5 184.5t198.5 129t267 47.5h18q185 0 313.5 -68.5t190 -169t61.5 -190.5l-1 -23h-435
q-12 79 -45 120.5t-100 41.5q-87 0 -137.5 -86.5t-50.5 -200.5q0 -72 19.5 -130t62.5 -95t106 -37q68 0 101.5 33.5t58.5 112.5h420z" />
    <glyph glyph-name="ograve" unicode="&#xf2;" horiz-adv-x="1068" 
d="M1044 738h-298v-738h-426v738h-297v328h1021v-328z" />
    <glyph glyph-name="ograve" unicode="&#x442;" horiz-adv-x="1068" 
d="M1044 738h-298v-738h-426v738h-297v328h1021v-328z" />
    <glyph glyph-name="oacute" unicode="&#xf3;" horiz-adv-x="1265" 
d="M1225 1066l-360 -1047l-41 -116q-55 -166 -173 -222.5t-291 -56.5l-94 2l-120 3v307q77 0 124.5 5t72.5 24t25 61q0 29 -13 71l-355 969h437l193 -645l162 645h433z" />
    <glyph glyph-name="oacute" unicode="&#x443;" horiz-adv-x="1265" 
d="M1225 1066l-360 -1047l-41 -116q-55 -166 -173 -222.5t-291 -56.5l-94 2l-120 3v307q77 0 124.5 5t72.5 24t25 61q0 29 -13 71l-355 969h437l193 -645l162 645h433z" />
    <glyph glyph-name="ocircumflex" unicode="&#xf4;" horiz-adv-x="2083" 
d="M2018 533q0 -197 -72 -328t-186 -191.5t-242 -60.5q-90 0 -171 31t-127 82v-456h-375v462q-49 -52 -129 -83t-168 -31q-123 0 -233.5 60.5t-180.5 190.5t-70 330v23q0 92 18.5 169.5t53.5 142.5q68 125 172 183t219 58q107 0 196 -48t122 -130l-2 564h377l2 -576
q33 84 122 133t197 49q117 0 224.5 -58t177.5 -181q35 -62 54.5 -139.5t19.5 -166.5l1 -13v-16zM1591 562q0 66 -46.5 145.5t-131.5 79.5q-84 0 -132 -73.5t-48 -173.5q0 -98 47 -169t133 -71q107 0 142.5 84.5t35.5 177.5zM848 542q0 63 -20 119t-61 91t-98 35
q-59 0 -100 -34t-63 -91.5t-22 -119.5q0 -100 48.5 -171t136.5 -71q85 0 132 72t47 170z" />
    <glyph glyph-name="ocircumflex" unicode="&#x444;" horiz-adv-x="2083" 
d="M2018 533q0 -197 -72 -328t-186 -191.5t-242 -60.5q-90 0 -171 31t-127 82v-456h-375v462q-49 -52 -129 -83t-168 -31q-123 0 -233.5 60.5t-180.5 190.5t-70 330v23q0 92 18.5 169.5t53.5 142.5q68 125 172 183t219 58q107 0 196 -48t122 -130l-2 564h377l2 -576
q33 84 122 133t197 49q117 0 224.5 -58t177.5 -181q35 -62 54.5 -139.5t19.5 -166.5l1 -13v-16zM1591 562q0 66 -46.5 145.5t-131.5 79.5q-84 0 -132 -73.5t-48 -173.5q0 -98 47 -169t133 -71q107 0 142.5 84.5t35.5 177.5zM848 542q0 63 -20 119t-61 91t-98 35
q-59 0 -100 -34t-63 -91.5t-22 -119.5q0 -100 48.5 -171t136.5 -71q85 0 132 72t47 170z" />
    <glyph glyph-name="otilde" unicode="&#xf5;" horiz-adv-x="1333" 
d="M1302 0h-486l-143 291l-162 -291h-484l387 566l-356 500h469l146 -242l143 242h486l-371 -500z" />
    <glyph glyph-name="otilde" unicode="&#x445;" horiz-adv-x="1333" 
d="M1302 0h-486l-143 291l-162 -291h-484l387 566l-356 500h469l146 -242l143 242h486l-371 -500z" />
    <glyph glyph-name="odieresis" unicode="&#xf6;" horiz-adv-x="1464" 
d="M1419 -248h-383v248h-929v1048v18h434v-752h296v752h442v-775h140v-539z" />
    <glyph glyph-name="odieresis" unicode="&#x446;" horiz-adv-x="1464" 
d="M1419 -248h-383v248h-929v1048v18h434v-752h296v752h442v-775h140v-539z" />
    <glyph glyph-name="divide" unicode="&#xf7;" horiz-adv-x="1364" 
d="M1247 0h-431v318h-381q-141 0 -236.5 67.5t-95.5 227.5v453h430v-385q0 -33 11 -48t35 -15l32 3h205v445h431v-1047v-19z" />
    <glyph glyph-name="divide" unicode="&#x447;" horiz-adv-x="1364" 
d="M1247 0h-431v318h-381q-141 0 -236.5 67.5t-95.5 227.5v453h430v-385q0 -33 11 -48t35 -15l32 3h205v445h431v-1047v-19z" />
    <glyph glyph-name="oslash" unicode="&#xf8;" horiz-adv-x="2100" 
d="M1970 0h-1047h-828v1048v18h438v-736h277v736h449v-736h273v736h438v-1047v-19z" />
    <glyph glyph-name="oslash" unicode="&#x448;" horiz-adv-x="2100" 
d="M1970 0h-1047h-828v1048v18h438v-736h277v736h449v-736h273v736h438v-1047v-19z" />
    <glyph glyph-name="ugrave" unicode="&#xf9;" horiz-adv-x="2165" 
d="M2116 -254h-379v250h-1048h-582v1048v18h439v-736h277v736h448v-736h273v736h439v-773h133v-543z" />
    <glyph glyph-name="ugrave" unicode="&#x449;" horiz-adv-x="2165" 
d="M2116 -254h-379v250h-1048h-582v1048v18h439v-736h277v736h448v-736h273v736h439v-773h133v-543z" />
    <glyph glyph-name="uacute" unicode="&#xfa;" horiz-adv-x="1548" 
d="M1502 364q0 -70 -31 -134.5t-94 -116t-158 -82.5t-212 -31h-691v744h-275v322h726v-328h215q128 0 226 -30.5t161.5 -82.5t99.5 -122q33 -66 33 -139zM1049 359q0 52 -27 75t-82 29q-21 0 -82.5 2.5t-90.5 2.5v-207l89 -2q47 0 76.5 2t53.5 8q42 10 52.5 30.5t10.5 59.5z
" />
    <glyph glyph-name="uacute" unicode="&#x44a;" horiz-adv-x="1548" 
d="M1502 364q0 -70 -31 -134.5t-94 -116t-158 -82.5t-212 -31h-691v744h-275v322h726v-328h215q128 0 226 -30.5t161.5 -82.5t99.5 -122q33 -66 33 -139zM1049 359q0 52 -27 75t-82 29q-21 0 -82.5 2.5t-90.5 2.5v-207l89 -2q47 0 76.5 2t53.5 8q42 10 52.5 30.5t10.5 59.5z
" />
    <glyph glyph-name="ucircumflex" unicode="&#xfb;" horiz-adv-x="1905" 
d="M1792 0h-426v1048v18h426v-1047v-19zM1273 364q0 -94 -56 -177t-167 -135q-57 -26 -121.5 -39t-143.5 -13h-682v1048v10h443v-324h217q124 0 219 -29.5t162 -84.5q64 -52 96.5 -119t32.5 -137zM831 363q0 52 -27 75t-83 29q-20 0 -82.5 2.5t-92.5 2.5v-207l90 -2
q92 0 132.5 10t51.5 30t11 60z" />
    <glyph glyph-name="ucircumflex" unicode="&#x44b;" horiz-adv-x="1905" 
d="M1792 0h-426v1048v18h426v-1047v-19zM1273 364q0 -94 -56 -177t-167 -135q-57 -26 -121.5 -39t-143.5 -13h-682v1048v10h443v-324h217q124 0 219 -29.5t162 -84.5q64 -52 96.5 -119t32.5 -137zM831 363q0 52 -27 75t-83 29q-20 0 -82.5 2.5t-92.5 2.5v-207l90 -2
q92 0 132.5 10t51.5 30t11 60z" />
    <glyph glyph-name="udieresis" unicode="&#xfc;" horiz-adv-x="1345" 
d="M1275 365q0 -67 -31 -132.5t-93.5 -118t-156.5 -83.5t-213 -31h-680v1048v18h446v-330h219q163 0 278 -52t173 -137.5t58 -181.5zM831 361q0 53 -27.5 76.5t-83.5 29.5q-21 0 -82.5 2.5t-90.5 2.5v-209l90 -2q91 0 131 10t51.5 30.5t11.5 59.5z" />
    <glyph glyph-name="udieresis" unicode="&#x44c;" horiz-adv-x="1345" 
d="M1275 365q0 -67 -31 -132.5t-93.5 -118t-156.5 -83.5t-213 -31h-680v1048v18h446v-330h219q163 0 278 -52t173 -137.5t58 -181.5zM831 361q0 53 -27.5 76.5t-83.5 29.5q-21 0 -82.5 2.5t-90.5 2.5v-209l90 -2q91 0 131 10t51.5 30.5t11.5 59.5z" />
    <glyph glyph-name="yacute" unicode="&#xfd;" horiz-adv-x="1361" 
d="M1290 535q0 -142 -71 -271.5t-211.5 -211t-332.5 -81.5h-17q-288 0 -440 105q-156 108 -156 316h428q24 -73 57 -95t111 -22q68 0 106 35t54 108h-254v240h269q-12 55 -36.5 98.5t-60 70t-78.5 26.5q-139 0 -172 -164h-424l-1 21q0 89 63 189t193 166q135 69 325 69
q209 0 356.5 -83t219.5 -219.5t72 -296.5z" />
    <glyph glyph-name="yacute" unicode="&#x44d;" horiz-adv-x="1361" 
d="M1290 535q0 -142 -71 -271.5t-211.5 -211t-332.5 -81.5h-17q-288 0 -440 105q-156 108 -156 316h428q24 -73 57 -95t111 -22q68 0 106 35t54 108h-254v240h269q-12 55 -36.5 98.5t-60 70t-78.5 26.5q-139 0 -172 -164h-424l-1 21q0 89 63 189t193 166q135 69 325 69
q209 0 356.5 -83t219.5 -219.5t72 -296.5z" />
    <glyph glyph-name="thorn" unicode="&#xfe;" horiz-adv-x="1966" 
d="M1901 519q0 -183 -84 -306t-222.5 -181.5t-288.5 -58.5q-141 0 -263 43t-212 137.5t-123 238.5h-177v-392h-423v1048v18h423v-387h172q24 112 87 196t145 132q40 24 83 41.5t90 29.5q89 21 176 21q154 0 290 -55t228 -180q47 -65 73 -144.5t26 -173.5v-13v-14zM1474 546
q0 103 -46.5 180.5t-143.5 77.5q-81 0 -128 -82t-47 -176q0 -98 50.5 -187.5t146.5 -89.5q89 0 128.5 86t39.5 191z" />
    <glyph glyph-name="thorn" unicode="&#x44e;" horiz-adv-x="1966" 
d="M1901 519q0 -183 -84 -306t-222.5 -181.5t-288.5 -58.5q-141 0 -263 43t-212 137.5t-123 238.5h-177v-392h-423v1048v18h423v-387h172q24 112 87 196t145 132q40 24 83 41.5t90 29.5q89 21 176 21q154 0 290 -55t228 -180q47 -65 73 -144.5t26 -173.5v-13v-14zM1474 546
q0 103 -46.5 180.5t-143.5 77.5q-81 0 -128 -82t-47 -176q0 -98 50.5 -187.5t146.5 -89.5q89 0 128.5 86t39.5 191z" />
    <glyph glyph-name="ydieresis" unicode="&#xff;" horiz-adv-x="1364" 
d="M1261 0h-449l4 283h-117l-160 -283h-528l280 392q-101 50 -157 133.5t-56 173.5q0 92 57 177t169 137q57 26 125 39.5t145 13.5h687v-1047v-19zM816 541v242l-89 3q-89 0 -129.5 -12.5t-52.5 -35.5t-12 -63q0 -47 19.5 -76.5t65.5 -44.5t129 -15z" />
    <glyph glyph-name="ydieresis" unicode="&#x44f;" horiz-adv-x="1364" 
d="M1261 0h-449l4 283h-117l-160 -283h-528l280 392q-101 50 -157 133.5t-56 173.5q0 92 57 177t169 137q57 26 125 39.5t145 13.5h687v-1047v-19zM816 541v242l-89 3q-89 0 -129.5 -12.5t-52.5 -35.5t-12 -63q0 -47 19.5 -76.5t65.5 -44.5t129 -15z" />
    <glyph glyph-name="c274" unicode="&#x2015;" horiz-adv-x="1932" 
 />
    <glyph glyph-name="c275" unicode="&#x2016;" horiz-adv-x="1932" 
 />
    <glyph glyph-name="c276" unicode="&#x2017;" horiz-adv-x="1932" 
 />
    <glyph glyph-name="c277" unicode="&#x201b;" horiz-adv-x="1932" 
 />
    <glyph glyph-name="c278" unicode="&#x201f;" horiz-adv-x="1932" 
 />
    <glyph glyph-name="c279" unicode="&#x2023;" horiz-adv-x="1932" 
 />
    <glyph glyph-name="c280" unicode="&#x2024;" horiz-adv-x="1932" 
 />
    <glyph glyph-name="c281" unicode="&#x2025;" horiz-adv-x="1932" 
 />
    <glyph glyph-name="c282" unicode="&#x2027;" horiz-adv-x="1932" 
 />
    <glyph glyph-name="c283" unicode="&#x2028;" horiz-adv-x="1932" 
 />
    <glyph glyph-name="c284" unicode="&#x2029;" horiz-adv-x="1932" 
 />
    <glyph glyph-name="c285" unicode="&#x202a;" horiz-adv-x="1932" 
 />
    <glyph glyph-name="c286" unicode="&#x202b;" horiz-adv-x="1932" 
 />
    <glyph glyph-name="c287" unicode="&#x202c;" horiz-adv-x="1932" 
 />
    <glyph glyph-name="c288" unicode="&#x202d;" horiz-adv-x="1932" 
 />
    <glyph glyph-name="c289" unicode="&#x202e;" horiz-adv-x="1932" 
 />
    <glyph glyph-name="c290" unicode="&#x202f;" horiz-adv-x="1932" 
 />
    <glyph glyph-name="_extra1" unicode="&#x123;" horiz-adv-x="662" 
d="M759 1484q-21 -125 -90.5 -202.5t-178.5 -77.5q-54 0 -119 22l-74 25q-67 23 -99 23q-67 0 -85 -79h-193q24 122 91.5 213.5t180.5 91.5q59 0 130 -30q122 -49 162 -49q62 0 82 63h193z" />
    <glyph glyph-name="_extra2" unicode="&#x124;" horiz-adv-x="662" 
d="M726 1534q0 -71 -42 -150t-129.5 -134t-215.5 -55q-130 0 -216.5 48t-129 127t-42.5 164h178q12 -64 75.5 -99t141.5 -35q80 0 139 35.5t65 98.5h176z" />
    <glyph glyph-name="_extra3" unicode="&#x125;" horiz-adv-x="679" 
d="M576 1441q0 -60 -27.5 -112.5t-80.5 -84.5t-129 -32t-131.5 33.5t-83 88t-27.5 112.5q0 60 27.5 113.5t83 86.5t131.5 33q75 0 128 -33.5t81 -89.5t28 -115zM436 1446q0 42 -25.5 73t-71.5 31q-45 0 -71.5 -31.5t-26.5 -72.5q0 -40 26 -74q27 -31 72 -31q44 0 70.5 31.5
t26.5 73.5z" />
    <glyph glyph-name="_extra4" unicode="&#x126;" horiz-adv-x="1372" 
d="M1275 0h-436v1048v453h436v-1048v-453zM775 825h-178v-825h-435v825h-162v258h162v96q0 93 35 173.5t112 131t191 50.5h275v-275q-102 0 -140 -21.5t-38 -91.5v-63h178v-258z" />
  </font>
</defs>
</svg>
